# This file uses centimeters as units for non-parametric coordinates.

g default
v 0.023358 -0.633939 0.000000
v -0.052512 -0.747487 0.000000
v -0.166061 -0.823358 0.000000
v -0.300000 -0.850000 0.000000
v -0.433939 -0.823358 0.000000
v -0.547487 -0.747487 0.000000
v -0.623358 -0.633939 0.000000
v -0.650000 -0.500000 0.000000
v -0.623358 -0.366061 -0.000000
v -0.547487 -0.252513 -0.000000
v -0.433939 -0.176642 -0.000000
v -0.300000 -0.150000 -0.000000
v -0.166061 -0.176642 -0.000000
v -0.052513 -0.252513 -0.000000
v 0.023358 -0.366061 -0.000000
v 0.050000 -0.500000 0.000000
v 0.016517 -0.571439 -0.016517
v -0.037132 -0.684987 0.037132
v -0.117423 -0.760858 0.117423
v -0.212132 -0.787500 0.212132
v -0.306841 -0.760858 0.306841
v -0.387132 -0.684987 0.387132
v -0.440780 -0.571439 0.440781
v -0.459619 -0.437500 0.459619
v -0.440781 -0.303561 0.440781
v -0.387132 -0.190013 0.387132
v -0.306841 -0.114142 0.306841
v -0.212132 -0.087500 0.212132
v -0.117423 -0.114142 0.117423
v -0.037132 -0.190013 0.037132
v 0.016516 -0.303561 -0.016516
v 0.035355 -0.437500 -0.035355
v 0.000000 -0.508939 -0.023358
v 0.000000 -0.622487 0.052512
v 0.000000 -0.698358 0.166061
v 0.000000 -0.725000 0.300000
v 0.000000 -0.698358 0.433939
v 0.000000 -0.622487 0.547487
v 0.000000 -0.508939 0.623358
v 0.000000 -0.375000 0.650000
v 0.000000 -0.241061 0.623358
v 0.000000 -0.127513 0.547487
v 0.000000 -0.051642 0.433939
v -0.000000 -0.025000 0.300000
v -0.000000 -0.051642 0.166061
v -0.000000 -0.127513 0.052513
v -0.000000 -0.241061 -0.023358
v -0.000000 -0.375000 -0.050000
v -0.016517 -0.446439 -0.016517
v 0.037132 -0.559987 0.037132
v 0.117423 -0.635858 0.117423
v 0.212132 -0.662500 0.212132
v 0.306841 -0.635858 0.306841
v 0.387132 -0.559987 0.387132
v 0.440781 -0.446439 0.440780
v 0.459619 -0.312500 0.459619
v 0.440781 -0.178561 0.440781
v 0.387132 -0.065013 0.387132
v 0.306841 0.010858 0.306841
v 0.212132 0.037500 0.212132
v 0.117423 0.010858 0.117423
v 0.037132 -0.065013 0.037132
v -0.016516 -0.178561 -0.016516
v -0.035355 -0.312500 -0.035355
v -0.023358 -0.383939 -0.000000
v 0.052512 -0.497487 -0.000000
v 0.166061 -0.573358 -0.000000
v 0.300000 -0.600000 -0.000000
v 0.433939 -0.573358 -0.000000
v 0.547487 -0.497487 -0.000000
v 0.623358 -0.383939 -0.000000
v 0.650000 -0.250000 -0.000000
v 0.623358 -0.116061 -0.000000
v 0.547487 -0.002513 -0.000000
v 0.433939 0.073358 -0.000000
v 0.300000 0.100000 -0.000000
v 0.166061 0.073358 -0.000000
v 0.052513 -0.002513 0.000000
v -0.023358 -0.116061 0.000000
v -0.050000 -0.250000 0.000000
v -0.016517 -0.321439 0.016517
v 0.037132 -0.434987 -0.037132
v 0.117423 -0.510858 -0.117423
v 0.212132 -0.537500 -0.212132
v 0.306841 -0.510858 -0.306841
v 0.387132 -0.434987 -0.387132
v 0.440780 -0.321439 -0.440781
v 0.459619 -0.187500 -0.459619
v 0.440780 -0.053561 -0.440781
v 0.387132 0.059987 -0.387132
v 0.306841 0.135858 -0.306841
v 0.212132 0.162500 -0.212132
v 0.117423 0.135858 -0.117423
v 0.037132 0.059987 -0.037132
v -0.016516 -0.053561 0.016516
v -0.035355 -0.187500 0.035355
v -0.000000 -0.258939 0.023358
v -0.000000 -0.372487 -0.052512
v -0.000000 -0.448358 -0.166061
v -0.000000 -0.475000 -0.300000
v -0.000000 -0.448358 -0.433939
v -0.000000 -0.372487 -0.547487
v -0.000000 -0.258939 -0.623358
v -0.000000 -0.125000 -0.650000
v -0.000000 0.008939 -0.623358
v 0.000000 0.122487 -0.547487
v 0.000000 0.198358 -0.433939
v 0.000000 0.225000 -0.300000
v 0.000000 0.198358 -0.166061
v 0.000000 0.122487 -0.052513
v 0.000000 0.008939 0.023358
v 0.000000 -0.125000 0.050000
v 0.016517 -0.196439 0.016517
v -0.037132 -0.309987 -0.037132
v -0.117423 -0.385858 -0.117423
v -0.212132 -0.412500 -0.212132
v -0.306841 -0.385858 -0.306841
v -0.387132 -0.309987 -0.387132
v -0.440780 -0.196439 -0.440781
v -0.459619 -0.062500 -0.459619
v -0.440780 0.071439 -0.440781
v -0.387132 0.184987 -0.387132
v -0.306841 0.260858 -0.306841
v -0.212132 0.287500 -0.212132
v -0.117423 0.260858 -0.117423
v -0.037132 0.184987 -0.037132
v 0.016516 0.071439 0.016516
v 0.035355 -0.062500 0.035355
v 0.023358 -0.133939 0.000000
v -0.052512 -0.247487 -0.000000
v -0.166061 -0.323358 -0.000000
v -0.300000 -0.350000 -0.000000
v -0.433939 -0.323358 -0.000000
v -0.547487 -0.247487 -0.000000
v -0.623358 -0.133939 -0.000000
v -0.650000 -0.000000 -0.000000
v -0.623358 0.133939 -0.000000
v -0.547487 0.247487 -0.000000
v -0.433939 0.323358 -0.000000
v -0.300000 0.350000 -0.000000
v -0.166061 0.323358 -0.000000
v -0.052513 0.247487 -0.000000
v 0.023358 0.133939 0.000000
v 0.050000 0.000000 0.000000
v 0.016517 -0.071439 -0.016517
v -0.037132 -0.184987 0.037132
v -0.117423 -0.260858 0.117423
v -0.212132 -0.287500 0.212132
v -0.306841 -0.260858 0.306841
v -0.387132 -0.184987 0.387132
v -0.440781 -0.071439 0.440780
v -0.459620 0.062500 0.459619
v -0.440781 0.196439 0.440780
v -0.387132 0.309987 0.387132
v -0.306842 0.385858 0.306841
v -0.212132 0.412500 0.212132
v -0.117423 0.385858 0.117423
v -0.037132 0.309987 0.037132
v 0.016516 0.196439 -0.016516
v 0.035355 0.062500 -0.035355
v 0.000000 -0.008939 -0.023358
v -0.000000 -0.122487 0.052512
v -0.000000 -0.198358 0.166061
v -0.000000 -0.225000 0.300000
v -0.000000 -0.198358 0.433939
v -0.000000 -0.122487 0.547487
v -0.000000 -0.008939 0.623358
v -0.000000 0.125000 0.650000
v -0.000000 0.258939 0.623358
v -0.000000 0.372487 0.547487
v -0.000000 0.448358 0.433939
v -0.000000 0.475000 0.300000
v -0.000000 0.448358 0.166061
v -0.000000 0.372487 0.052513
v 0.000000 0.258939 -0.023358
v 0.000000 0.125000 -0.050000
v -0.016517 0.053561 -0.016517
v 0.037132 -0.059987 0.037132
v 0.117423 -0.135858 0.117423
v 0.212132 -0.162500 0.212132
v 0.306841 -0.135858 0.306841
v 0.387132 -0.059987 0.387132
v 0.440780 0.053561 0.440781
v 0.459619 0.187500 0.459620
v 0.440780 0.321439 0.440781
v 0.387132 0.434987 0.387132
v 0.306841 0.510858 0.306841
v 0.212132 0.537500 0.212132
v 0.117423 0.510858 0.117423
v 0.037132 0.434987 0.037132
v -0.016516 0.321439 -0.016516
v -0.035355 0.187500 -0.035355
v -0.023358 0.116061 -0.000000
v 0.052512 0.002513 -0.000000
v 0.166061 -0.073358 -0.000000
v 0.300000 -0.100000 -0.000000
v 0.433939 -0.073358 -0.000000
v 0.547487 0.002513 -0.000000
v 0.623358 0.116061 -0.000000
v 0.650000 0.250000 -0.000000
v 0.623358 0.383939 -0.000000
v 0.547487 0.497487 -0.000000
v 0.433939 0.573358 0.000000
v 0.300000 0.600000 0.000000
v 0.166061 0.573358 0.000000
v 0.052513 0.497487 0.000000
v -0.023358 0.383939 0.000000
v -0.050000 0.250000 0.000000
v -0.016517 0.178561 0.016517
v 0.037132 0.065013 -0.037132
v 0.117423 -0.010858 -0.117423
v 0.212132 -0.037500 -0.212132
v 0.306841 -0.010858 -0.306841
v 0.387132 0.065013 -0.387132
v 0.440780 0.178561 -0.440781
v 0.459619 0.312500 -0.459620
v 0.440780 0.446439 -0.440781
v 0.387132 0.559987 -0.387132
v 0.306841 0.635858 -0.306841
v 0.212132 0.662500 -0.212132
v 0.117423 0.635858 -0.117423
v 0.037132 0.559987 -0.037132
v -0.016516 0.446439 0.016516
v -0.035355 0.312500 0.035355
v 0.000000 0.241061 0.023358
v -0.000000 0.127513 -0.052512
v -0.000000 0.051642 -0.166061
v -0.000000 0.025000 -0.300000
v -0.000000 0.051642 -0.433939
v -0.000000 0.127513 -0.547487
v -0.000000 0.241061 -0.623358
v -0.000000 0.375000 -0.650000
v -0.000000 0.508939 -0.623358
v -0.000000 0.622487 -0.547487
v -0.000000 0.698358 -0.433939
v -0.000000 0.725000 -0.300000
v -0.000000 0.698358 -0.166061
v -0.000000 0.622487 -0.052513
v 0.000000 0.508939 0.023358
v 0.000000 0.375000 0.050000
v 0.016517 0.303561 0.016517
v -0.037132 0.190013 -0.037132
v -0.117423 0.114142 -0.117422
v -0.212132 0.087500 -0.212132
v -0.306842 0.114142 -0.306841
v -0.387132 0.190013 -0.387132
v -0.440781 0.303561 -0.440780
v -0.459620 0.437500 -0.459619
v -0.440781 0.571439 -0.440780
v -0.387132 0.684987 -0.387132
v -0.306842 0.760858 -0.306841
v -0.212132 0.787500 -0.212132
v -0.117423 0.760858 -0.117423
v -0.037132 0.684987 -0.037132
v 0.016517 0.571439 0.016516
v 0.035355 0.437500 0.035355
v 0.023358 0.366061 -0.000000
v -0.052512 0.252513 0.000000
v -0.166061 0.176642 0.000000
v -0.300000 0.150000 0.000000
v -0.433939 0.176642 0.000001
v -0.547487 0.252513 0.000001
v -0.623358 0.366061 0.000001
v -0.650000 0.500000 0.000001
v -0.623358 0.633939 0.000001
v -0.547487 0.747487 0.000001
v -0.433939 0.823358 0.000001
v -0.300000 0.850000 0.000000
v -0.166061 0.823358 0.000000
v -0.052513 0.747487 0.000000
v 0.023358 0.633939 -0.000000
v 0.050000 0.500000 -0.000000
vt 0.963820 0.077165
vt 0.855433 0.036612
vt 0.693222 0.009515
vt 0.501880 0.000000
vt 0.310538 0.009515
vt 0.148326 0.036612
vt 0.039940 0.077165
vt 0.001880 0.125000
vt 0.039940 0.172835
vt 0.148326 0.213388
vt 0.310538 0.240485
vt 0.501880 0.250000
vt 0.693221 0.240485
vt 0.855433 0.213388
vt 0.963820 0.172835
vt 1.001880 0.125000
vt 0.000000 0.250000
vt 0.062500 0.250000
vt 0.125000 0.250000
vt 0.187500 0.250000
vt 0.250000 0.250000
vt 0.312500 0.250000
vt 0.375000 0.250000
vt 0.437500 0.250000
vt 0.500000 0.250000
vt 0.562500 0.250000
vt 0.625000 0.250000
vt 0.687500 0.250000
vt 0.750000 0.250000
vt 0.812500 0.250000
vt 0.875000 0.250000
vt 0.937500 0.250000
vt 1.000000 0.250000
vt 0.000000 0.281250
vt 0.062500 0.281250
vt 0.125000 0.281250
vt 0.187500 0.281250
vt 0.250000 0.281250
vt 0.312500 0.281250
vt 0.375000 0.281250
vt 0.437500 0.281250
vt 0.500000 0.281250
vt 0.562500 0.281250
vt 0.625000 0.281250
vt 0.687500 0.281250
vt 0.750000 0.281250
vt 0.812500 0.281250
vt 0.875000 0.281250
vt 0.937500 0.281250
vt 1.000000 0.281250
vt 0.000000 0.312500
vt 0.062500 0.312500
vt 0.125000 0.312500
vt 0.187500 0.312500
vt 0.250000 0.312500
vt 0.312500 0.312500
vt 0.375000 0.312500
vt 0.437500 0.312500
vt 0.500000 0.312500
vt 0.562500 0.312500
vt 0.625000 0.312500
vt 0.687500 0.312500
vt 0.750000 0.312500
vt 0.812500 0.312500
vt 0.875000 0.312500
vt 0.937500 0.312500
vt 1.000000 0.312500
vt 0.000000 0.343750
vt 0.062500 0.343750
vt 0.125000 0.343750
vt 0.187500 0.343750
vt 0.250000 0.343750
vt 0.312500 0.343750
vt 0.375000 0.343750
vt 0.437500 0.343750
vt 0.500000 0.343750
vt 0.562500 0.343750
vt 0.625000 0.343750
vt 0.687500 0.343750
vt 0.750000 0.343750
vt 0.812500 0.343750
vt 0.875000 0.343750
vt 0.937500 0.343750
vt 1.000000 0.343750
vt 0.000000 0.375000
vt 0.062500 0.375000
vt 0.125000 0.375000
vt 0.187500 0.375000
vt 0.250000 0.375000
vt 0.312500 0.375000
vt 0.375000 0.375000
vt 0.437500 0.375000
vt 0.500000 0.375000
vt 0.562500 0.375000
vt 0.625000 0.375000
vt 0.687500 0.375000
vt 0.750000 0.375000
vt 0.812500 0.375000
vt 0.875000 0.375000
vt 0.937500 0.375000
vt 1.000000 0.375000
vt 0.000000 0.406250
vt 0.062500 0.406250
vt 0.125000 0.406250
vt 0.187500 0.406250
vt 0.250000 0.406250
vt 0.312500 0.406250
vt 0.375000 0.406250
vt 0.437500 0.406250
vt 0.500000 0.406250
vt 0.562500 0.406250
vt 0.625000 0.406250
vt 0.687500 0.406250
vt 0.750000 0.406250
vt 0.812500 0.406250
vt 0.875000 0.406250
vt 0.937500 0.406250
vt 1.000000 0.406250
vt 0.000000 0.437500
vt 0.062500 0.437500
vt 0.125000 0.437500
vt 0.187500 0.437500
vt 0.250000 0.437500
vt 0.312500 0.437500
vt 0.375000 0.437500
vt 0.437500 0.437500
vt 0.500000 0.437500
vt 0.562500 0.437500
vt 0.625000 0.437500
vt 0.687500 0.437500
vt 0.750000 0.437500
vt 0.812500 0.437500
vt 0.875000 0.437500
vt 0.937500 0.437500
vt 1.000000 0.437500
vt 0.000000 0.468750
vt 0.062500 0.468750
vt 0.125000 0.468750
vt 0.187500 0.468750
vt 0.250000 0.468750
vt 0.312500 0.468750
vt 0.375000 0.468750
vt 0.437500 0.468750
vt 0.500000 0.468750
vt 0.562500 0.468750
vt 0.625000 0.468750
vt 0.687500 0.468750
vt 0.750000 0.468750
vt 0.812500 0.468750
vt 0.875000 0.468750
vt 0.937500 0.468750
vt 1.000000 0.468750
vt 0.000000 0.500000
vt 0.062500 0.500000
vt 0.125000 0.500000
vt 0.187500 0.500000
vt 0.250000 0.500000
vt 0.312500 0.500000
vt 0.375000 0.500000
vt 0.437500 0.500000
vt 0.500000 0.500000
vt 0.562500 0.500000
vt 0.625000 0.500000
vt 0.687500 0.500000
vt 0.750000 0.500000
vt 0.812500 0.500000
vt 0.875000 0.500000
vt 0.937500 0.500000
vt 1.000000 0.500000
vt 0.000000 0.531250
vt 0.062500 0.531250
vt 0.125000 0.531250
vt 0.187500 0.531250
vt 0.250000 0.531250
vt 0.312500 0.531250
vt 0.375000 0.531250
vt 0.437500 0.531250
vt 0.500000 0.531250
vt 0.562500 0.531250
vt 0.625000 0.531250
vt 0.687500 0.531250
vt 0.750000 0.531250
vt 0.812500 0.531250
vt 0.875000 0.531250
vt 0.937500 0.531250
vt 1.000000 0.531250
vt 0.000000 0.562500
vt 0.062500 0.562500
vt 0.125000 0.562500
vt 0.187500 0.562500
vt 0.250000 0.562500
vt 0.312500 0.562500
vt 0.375000 0.562500
vt 0.437500 0.562500
vt 0.500000 0.562500
vt 0.562500 0.562500
vt 0.625000 0.562500
vt 0.687500 0.562500
vt 0.750000 0.562500
vt 0.812500 0.562500
vt 0.875000 0.562500
vt 0.937500 0.562500
vt 1.000000 0.562500
vt 0.000000 0.593750
vt 0.062500 0.593750
vt 0.125000 0.593750
vt 0.187500 0.593750
vt 0.250000 0.593750
vt 0.312500 0.593750
vt 0.375000 0.593750
vt 0.437500 0.593750
vt 0.500000 0.593750
vt 0.562500 0.593750
vt 0.625000 0.593750
vt 0.687500 0.593750
vt 0.750000 0.593750
vt 0.812500 0.593750
vt 0.875000 0.593750
vt 0.937500 0.593750
vt 1.000000 0.593750
vt 0.000000 0.625000
vt 0.062500 0.625000
vt 0.125000 0.625000
vt 0.187500 0.625000
vt 0.250000 0.625000
vt 0.312500 0.625000
vt 0.375000 0.625000
vt 0.437500 0.625000
vt 0.500000 0.625000
vt 0.562500 0.625000
vt 0.625000 0.625000
vt 0.687500 0.625000
vt 0.750000 0.625000
vt 0.812500 0.625000
vt 0.875000 0.625000
vt 0.937500 0.625000
vt 1.000000 0.625000
vt 0.000000 0.656250
vt 0.062500 0.656250
vt 0.125000 0.656250
vt 0.187500 0.656250
vt 0.250000 0.656250
vt 0.312500 0.656250
vt 0.375000 0.656250
vt 0.437500 0.656250
vt 0.500000 0.656250
vt 0.562500 0.656250
vt 0.625000 0.656250
vt 0.687500 0.656250
vt 0.750000 0.656250
vt 0.812500 0.656250
vt 0.875000 0.656250
vt 0.937500 0.656250
vt 1.000000 0.656250
vt 0.000000 0.687500
vt 0.062500 0.687500
vt 0.125000 0.687500
vt 0.187500 0.687500
vt 0.250000 0.687500
vt 0.312500 0.687500
vt 0.375000 0.687500
vt 0.437500 0.687500
vt 0.500000 0.687500
vt 0.562500 0.687500
vt 0.625000 0.687500
vt 0.687500 0.687500
vt 0.750000 0.687500
vt 0.812500 0.687500
vt 0.875000 0.687500
vt 0.937500 0.687500
vt 1.000000 0.687500
vt 0.000000 0.718750
vt 0.062500 0.718750
vt 0.125000 0.718750
vt 0.187500 0.718750
vt 0.250000 0.718750
vt 0.312500 0.718750
vt 0.375000 0.718750
vt 0.437500 0.718750
vt 0.500000 0.718750
vt 0.562500 0.718750
vt 0.625000 0.718750
vt 0.687500 0.718750
vt 0.750000 0.718750
vt 0.812500 0.718750
vt 0.875000 0.718750
vt 0.937500 0.718750
vt 1.000000 0.718750
vt 0.000000 0.750000
vt 0.062500 0.750000
vt 0.125000 0.750000
vt 0.187500 0.750000
vt 0.250000 0.750000
vt 0.312500 0.750000
vt 0.375000 0.750000
vt 0.437500 0.750000
vt 0.500000 0.750000
vt 0.562500 0.750000
vt 0.625000 0.750000
vt 0.687500 0.750000
vt 0.750000 0.750000
vt 0.812500 0.750000
vt 0.875000 0.750000
vt 0.937500 0.750000
vt 1.000000 0.750000
vt 0.963820 0.827165
vt 0.855433 0.786612
vt 0.693222 0.759515
vt 0.501880 0.750000
vt 0.310538 0.759515
vt 0.148326 0.786612
vt 0.039940 0.827165
vt 0.001880 0.875000
vt 0.039940 0.922835
vt 0.148326 0.963388
vt 0.310538 0.990485
vt 0.501880 1.000000
vt 0.693221 0.990485
vt 0.855433 0.963388
vt 0.963820 0.922835
vt 1.001880 0.875000
vn -0.501676 0.141351 -0.853429
vn -0.671469 0.659576 -0.337772
vn -0.756685 0.646063 -0.100157
vn -0.304858 0.003351 -0.952392
vn -0.388454 0.889590 -0.240277
vn -0.441671 0.894007 -0.075353
vn -0.010108 0.964152 -0.265157
vn -0.101397 0.969038 -0.225132
vn 0.364798 0.871363 -0.328099
vn 0.211841 0.884454 -0.415770
vn 0.660795 0.646773 -0.380834
vn 0.463773 0.667239 -0.582844
vn 0.847374 0.346742 -0.402153
vn 0.632380 0.357231 -0.687373
vn 0.923032 0.015096 -0.384428
vn 0.707107 0.000000 -0.707107
vn 0.891184 -0.319230 -0.322309
vn 0.687373 -0.357231 -0.632380
vn 0.750299 -0.627483 -0.208127
vn 0.582845 -0.667238 -0.463773
vn 0.501930 -0.864218 -0.034533
vn 0.415770 -0.884454 -0.211841
vn 0.177967 -0.964200 0.196588
vn 0.225133 -0.969038 0.101396
vn -0.125542 -0.870585 0.475732
vn 0.075353 -0.894007 0.441671
vn -0.128117 -0.523034 0.842628
vn 0.100156 -0.646063 0.756684
vn 0.972481 0.127232 0.195175
vn 0.952391 -0.003352 0.304860
vn 0.785932 -0.116867 -0.607168
vn 0.707107 0.000000 -0.707106
vn -0.605878 0.646063 0.464236
vn -0.889010 0.003351 -0.457875
vn -0.365591 0.894007 0.259026
vn -0.230891 0.969038 -0.087494
vn -0.144200 0.884454 -0.443788
vn -0.084197 0.667239 -0.740070
vn -0.038886 0.357231 -0.933206
vn -0.000000 0.000000 -1.000000
vn 0.038886 -0.357231 -0.933206
vn 0.084196 -0.667238 -0.740070
vn 0.144200 -0.884454 -0.443788
vn 0.230891 -0.969038 -0.087495
vn 0.365591 -0.894007 0.259026
vn 0.605878 -0.646063 0.464236
vn 0.889011 -0.003352 -0.457874
vn 0.000001 0.000000 -1.000000
vn -0.100156 0.646063 0.756685
vn -0.952392 0.003351 0.304857
vn -0.075352 0.894007 0.441671
vn -0.225132 0.969038 0.101397
vn -0.415770 0.884454 -0.211841
vn -0.582844 0.667239 -0.463772
vn -0.687373 0.357231 -0.632380
vn -0.707107 0.000000 -0.707107
vn -0.632380 -0.357231 -0.687373
vn -0.463773 -0.667238 -0.582845
vn -0.211841 -0.884454 -0.415770
vn 0.101396 -0.969038 -0.225133
vn 0.441671 -0.894007 -0.075353
vn 0.756684 -0.646063 -0.100156
vn 0.304860 -0.003352 -0.952391
vn -0.707106 0.000000 -0.707107
vn 0.464236 0.646063 0.605878
vn -0.457876 0.003351 0.889010
vn 0.259027 0.894007 0.365591
vn -0.087494 0.969038 0.230891
vn -0.443788 0.884454 0.144200
vn -0.740070 0.667239 0.084197
vn -0.933206 0.357231 0.038886
vn -1.000000 0.000000 0.000000
vn -0.933206 -0.357231 -0.038886
vn -0.740070 -0.667238 -0.084196
vn -0.443789 -0.884454 -0.144199
vn -0.087495 -0.969038 -0.230891
vn 0.259026 -0.894007 -0.365591
vn 0.464236 -0.646063 -0.605878
vn -0.457874 -0.003352 -0.889011
vn -1.000000 0.000000 -0.000001
vn 0.756685 0.646063 0.100157
vn 0.304858 0.003351 0.952392
vn 0.441671 0.894007 0.075352
vn 0.101397 0.969038 0.225132
vn -0.211841 0.884454 0.415770
vn -0.463772 0.667239 0.582844
vn -0.632380 0.357231 0.687373
vn -0.707107 0.000000 0.707107
vn -0.687373 -0.357231 0.632380
vn -0.582845 -0.667238 0.463773
vn -0.415770 -0.884454 0.211841
vn -0.225133 -0.969038 -0.101396
vn -0.075353 -0.894007 -0.441671
vn -0.100156 -0.646063 -0.756684
vn -0.952391 -0.003352 -0.304860
vn -0.707107 0.000000 0.707106
vn 0.605878 0.646063 -0.464236
vn 0.889010 0.003351 0.457875
vn 0.365591 0.894007 -0.259026
vn 0.230891 0.969038 0.087494
vn 0.144200 0.884454 0.443788
vn 0.084197 0.667239 0.740070
vn 0.038886 0.357231 0.933206
vn -0.000000 0.000000 1.000000
vn -0.038886 -0.357231 0.933206
vn -0.084196 -0.667238 0.740070
vn -0.144200 -0.884454 0.443788
vn -0.230891 -0.969038 0.087495
vn -0.365591 -0.894007 -0.259026
vn -0.605878 -0.646063 -0.464236
vn -0.889011 -0.003352 0.457874
vn -0.000001 0.000000 1.000000
vn 0.100157 0.646063 -0.756685
vn 0.952392 0.003351 -0.304858
vn 0.075353 0.894007 -0.441671
vn 0.225132 0.969038 -0.101397
vn 0.415770 0.884454 0.211841
vn 0.582844 0.667239 0.463773
vn 0.687373 0.357231 0.632380
vn 0.707107 0.000000 0.707107
vn 0.632380 -0.357231 0.687373
vn 0.463773 -0.667238 0.582845
vn 0.211841 -0.884454 0.415770
vn -0.101396 -0.969038 0.225133
vn -0.441671 -0.894007 0.075353
vn -0.756684 -0.646063 0.100156
vn -0.304860 -0.003353 0.952391
vn 0.707106 0.000000 0.707107
vn -0.464235 0.646063 -0.605878
vn 0.457876 0.003351 -0.889010
vn -0.259026 0.894007 -0.365591
vn 0.087494 0.969038 -0.230891
vn 0.443788 0.884454 -0.144199
vn 0.740070 0.667239 -0.084196
vn 0.933206 0.357232 -0.038886
vn 1.000000 0.000000 0.000000
vn 0.933206 -0.357231 0.038886
vn 0.740070 -0.667238 0.084197
vn 0.443788 -0.884454 0.144200
vn 0.087495 -0.969038 0.230891
vn -0.259026 -0.894007 0.365591
vn -0.464236 -0.646063 0.605878
vn 0.457874 -0.003352 0.889011
vn 1.000000 0.000000 0.000001
vn -0.756685 0.646063 -0.100157
vn -0.304858 0.003351 -0.952392
vn -0.441671 0.894007 -0.075353
vn -0.101397 0.969038 -0.225132
vn 0.211841 0.884454 -0.415770
vn 0.463773 0.667239 -0.582844
vn 0.632380 0.357232 -0.687373
vn 0.707107 0.000000 -0.707107
vn 0.687373 -0.357231 -0.632380
vn 0.582845 -0.667238 -0.463773
vn 0.415770 -0.884454 -0.211841
vn 0.225133 -0.969038 0.101397
vn 0.075353 -0.894007 0.441671
vn 0.100156 -0.646063 0.756684
vn 0.952391 -0.003352 0.304860
vn 0.707108 0.000000 -0.707106
vn -0.605878 0.646063 0.464235
vn -0.889010 0.003351 -0.457876
vn -0.365591 0.894007 0.259026
vn -0.230891 0.969038 -0.087494
vn -0.144199 0.884454 -0.443788
vn -0.084196 0.667239 -0.740070
vn -0.038886 0.357231 -0.933206
vn 0.000000 0.000000 -1.000000
vn 0.038886 -0.357231 -0.933206
vn 0.084197 -0.667238 -0.740070
vn 0.144200 -0.884454 -0.443789
vn 0.230891 -0.969038 -0.087495
vn 0.365591 -0.894007 0.259026
vn 0.605877 -0.646063 0.464236
vn 0.889011 -0.003352 -0.457874
vn 0.000001 0.000000 -1.000000
vn -0.100156 0.646063 0.756685
vn -0.952392 0.003351 0.304857
vn -0.075353 0.894007 0.441671
vn -0.225132 0.969038 0.101397
vn -0.415770 0.884454 -0.211841
vn -0.582844 0.667239 -0.463773
vn -0.687373 0.357231 -0.632380
vn -0.707107 0.000000 -0.707107
vn -0.632380 -0.357231 -0.687373
vn -0.463773 -0.667238 -0.582845
vn -0.211841 -0.884454 -0.415770
vn 0.101396 -0.969038 -0.225133
vn 0.441671 -0.894007 -0.075352
vn 0.756684 -0.646063 -0.100156
vn 0.304860 -0.003352 -0.952391
vn -0.707106 0.000000 -0.707108
vn 0.464236 0.646063 0.605878
vn -0.457875 0.003351 0.889010
vn 0.259027 0.894007 0.365591
vn -0.087494 0.969038 0.230891
vn -0.443788 0.884454 0.144200
vn -0.740070 0.667239 0.084197
vn -0.933206 0.357231 0.038886
vn -1.000000 0.000000 0.000000
vn -0.933206 -0.357231 -0.038886
vn -0.740070 -0.667238 -0.084196
vn -0.443788 -0.884454 -0.144199
vn -0.087495 -0.969038 -0.230891
vn 0.259026 -0.894007 -0.365591
vn 0.464236 -0.646064 -0.605877
vn -0.457874 -0.003353 -0.889011
vn -1.000000 0.000000 -0.000001
vn 0.756685 0.646063 0.100156
vn 0.304858 0.003351 0.952392
vn 0.441671 0.894007 0.075352
vn 0.101397 0.969038 0.225132
vn -0.211841 0.884454 0.415770
vn -0.463772 0.667239 0.582844
vn -0.632380 0.357231 0.687373
vn -0.707106 0.000000 0.707107
vn -0.687373 -0.357231 0.632380
vn -0.582844 -0.667238 0.463773
vn -0.415770 -0.884454 0.211842
vn -0.225133 -0.969038 -0.101396
vn -0.075353 -0.894007 -0.441671
vn -0.100156 -0.646063 -0.756684
vn -0.952392 -0.003352 -0.304859
vn -0.707107 0.000000 0.707106
vn 0.605878 0.646063 -0.464236
vn 0.889010 0.003351 0.457875
vn 0.365591 0.894007 -0.259027
vn 0.230891 0.969038 0.087494
vn 0.144200 0.884454 0.443788
vn 0.084197 0.667239 0.740070
vn 0.038887 0.357231 0.933206
vn 0.000001 0.000000 1.000000
vn -0.038885 -0.357231 0.933206
vn -0.084196 -0.667238 0.740070
vn -0.144199 -0.884454 0.443789
vn -0.230891 -0.969038 0.087495
vn -0.365591 -0.894007 -0.259026
vn -0.605877 -0.646063 -0.464236
vn -0.889010 -0.003352 0.457875
vn 0.000000 0.000000 1.000000
vn 0.100156 0.646063 -0.756685
vn 0.952392 0.003351 -0.304859
vn 0.075352 0.894007 -0.441671
vn 0.225132 0.969038 -0.101397
vn 0.415770 0.884454 0.211841
vn 0.582845 0.667239 0.463772
vn 0.687374 0.357231 0.632379
vn 0.707108 0.000000 0.707106
vn 0.632381 -0.357231 0.687372
vn 0.463774 -0.667238 0.582844
vn 0.211842 -0.884454 0.415770
vn -0.101396 -0.969038 0.225133
vn -0.441671 -0.894007 0.075353
vn -0.756684 -0.646063 0.100156
vn -0.304859 -0.003352 0.952392
vn 0.707107 0.000000 0.707107
vn -0.128117 0.523033 -0.842628
vn 0.972481 -0.127232 -0.195175
vn -0.125543 0.870585 -0.475733
vn 0.177966 0.964200 -0.196589
vn 0.501930 0.864219 0.034532
vn 0.750299 0.627483 0.208126
vn 0.891185 0.319230 0.322308
vn 0.923032 -0.015095 0.384427
vn 0.847375 -0.346741 0.402152
vn 0.660796 -0.646772 0.380833
vn 0.364799 -0.871363 0.328098
vn -0.010107 -0.964152 0.265156
vn -0.388453 -0.889591 0.240277
vn -0.671468 -0.659576 0.337772
vn -0.501677 -0.141352 0.853428
vn 0.785932 0.116867 0.607168
vn 0.000000 0.000000 1.000000
vn 0.000000 0.000000 1.000000
vn 0.000000 0.000000 1.000000
vn 0.000000 0.000000 1.000000
vn 0.000000 0.000000 1.000000
vn 0.000000 0.000000 1.000000
vn 0.000000 0.000000 1.000000
vn 0.000000 0.000000 1.000000
vn 0.000000 0.000000 1.000000
vn 0.000000 0.000000 1.000000
vn 0.000000 0.000000 1.000000
vn 0.000000 0.000000 1.000000
vn 0.000000 0.000000 1.000000
vn 0.000000 0.000000 1.000000
vn 0.000000 0.000000 1.000000
vn 0.000000 0.000000 1.000000
vn -0.000001 -0.000000 -1.000000
vn -0.000001 -0.000000 -1.000000
vn -0.000001 -0.000000 -1.000000
vn -0.000001 -0.000000 -1.000000
vn -0.000001 -0.000000 -1.000000
vn -0.000001 -0.000000 -1.000000
vn -0.000001 -0.000000 -1.000000
vn -0.000001 -0.000000 -1.000000
vn -0.000001 -0.000000 -1.000000
vn -0.000001 -0.000000 -1.000000
vn -0.000001 -0.000000 -1.000000
vn -0.000001 -0.000000 -1.000000
vn -0.000001 -0.000000 -1.000000
vn -0.000001 -0.000000 -1.000000
vn -0.000001 -0.000000 -1.000000
vn -0.000001 -0.000000 -1.000000
s 1
g maya_helix
f 1/17/1 2/18/2 18/35/3 17/34/4
f 2/18/2 3/19/5 19/36/6 18/35/3
f 3/19/5 4/20/7 20/37/8 19/36/6
f 4/20/7 5/21/9 21/38/10 20/37/8
f 5/21/9 6/22/11 22/39/12 21/38/10
f 6/22/11 7/23/13 23/40/14 22/39/12
f 7/23/13 8/24/15 24/41/16 23/40/14
f 8/24/15 9/25/17 25/42/18 24/41/16
f 9/25/17 10/26/19 26/43/20 25/42/18
f 10/26/19 11/27/21 27/44/22 26/43/20
f 11/27/21 12/28/23 28/45/24 27/44/22
f 12/28/23 13/29/25 29/46/26 28/45/24
f 13/29/25 14/30/27 30/47/28 29/46/26
f 14/30/27 15/31/29 31/48/30 30/47/28
f 15/31/29 16/32/31 32/49/32 31/48/30
f 16/32/31 1/33/1 17/50/4 32/49/32
f 17/34/4 18/35/3 34/52/33 33/51/34
f 18/35/3 19/36/6 35/53/35 34/52/33
f 19/36/6 20/37/8 36/54/36 35/53/35
f 20/37/8 21/38/10 37/55/37 36/54/36
f 21/38/10 22/39/12 38/56/38 37/55/37
f 22/39/12 23/40/14 39/57/39 38/56/38
f 23/40/14 24/41/16 40/58/40 39/57/39
f 24/41/16 25/42/18 41/59/41 40/58/40
f 25/42/18 26/43/20 42/60/42 41/59/41
f 26/43/20 27/44/22 43/61/43 42/60/42
f 27/44/22 28/45/24 44/62/44 43/61/43
f 28/45/24 29/46/26 45/63/45 44/62/44
f 29/46/26 30/47/28 46/64/46 45/63/45
f 30/47/28 31/48/30 47/65/47 46/64/46
f 31/48/30 32/49/32 48/66/48 47/65/47
f 32/49/32 17/50/4 33/67/34 48/66/48
f 33/51/34 34/52/33 50/69/49 49/68/50
f 34/52/33 35/53/35 51/70/51 50/69/49
f 35/53/35 36/54/36 52/71/52 51/70/51
f 36/54/36 37/55/37 53/72/53 52/71/52
f 37/55/37 38/56/38 54/73/54 53/72/53
f 38/56/38 39/57/39 55/74/55 54/73/54
f 39/57/39 40/58/40 56/75/56 55/74/55
f 40/58/40 41/59/41 57/76/57 56/75/56
f 41/59/41 42/60/42 58/77/58 57/76/57
f 42/60/42 43/61/43 59/78/59 58/77/58
f 43/61/43 44/62/44 60/79/60 59/78/59
f 44/62/44 45/63/45 61/80/61 60/79/60
f 45/63/45 46/64/46 62/81/62 61/80/61
f 46/64/46 47/65/47 63/82/63 62/81/62
f 47/65/47 48/66/48 64/83/64 63/82/63
f 48/66/48 33/67/34 49/84/50 64/83/64
f 49/68/50 50/69/49 66/86/65 65/85/66
f 50/69/49 51/70/51 67/87/67 66/86/65
f 51/70/51 52/71/52 68/88/68 67/87/67
f 52/71/52 53/72/53 69/89/69 68/88/68
f 53/72/53 54/73/54 70/90/70 69/89/69
f 54/73/54 55/74/55 71/91/71 70/90/70
f 55/74/55 56/75/56 72/92/72 71/91/71
f 56/75/56 57/76/57 73/93/73 72/92/72
f 57/76/57 58/77/58 74/94/74 73/93/73
f 58/77/58 59/78/59 75/95/75 74/94/74
f 59/78/59 60/79/60 76/96/76 75/95/75
f 60/79/60 61/80/61 77/97/77 76/96/76
f 61/80/61 62/81/62 78/98/78 77/97/77
f 62/81/62 63/82/63 79/99/79 78/98/78
f 63/82/63 64/83/64 80/100/80 79/99/79
f 64/83/64 49/84/50 65/101/66 80/100/80
f 65/85/66 66/86/65 82/103/81 81/102/82
f 66/86/65 67/87/67 83/104/83 82/103/81
f 67/87/67 68/88/68 84/105/84 83/104/83
f 68/88/68 69/89/69 85/106/85 84/105/84
f 69/89/69 70/90/70 86/107/86 85/106/85
f 70/90/70 71/91/71 87/108/87 86/107/86
f 71/91/71 72/92/72 88/109/88 87/108/87
f 72/92/72 73/93/73 89/110/89 88/109/88
f 73/93/73 74/94/74 90/111/90 89/110/89
f 74/94/74 75/95/75 91/112/91 90/111/90
f 75/95/75 76/96/76 92/113/92 91/112/91
f 76/96/76 77/97/77 93/114/93 92/113/92
f 77/97/77 78/98/78 94/115/94 93/114/93
f 78/98/78 79/99/79 95/116/95 94/115/94
f 79/99/79 80/100/80 96/117/96 95/116/95
f 80/100/80 65/101/66 81/118/82 96/117/96
f 81/102/82 82/103/81 98/120/97 97/119/98
f 82/103/81 83/104/83 99/121/99 98/120/97
f 83/104/83 84/105/84 100/122/100 99/121/99
f 84/105/84 85/106/85 101/123/101 100/122/100
f 85/106/85 86/107/86 102/124/102 101/123/101
f 86/107/86 87/108/87 103/125/103 102/124/102
f 87/108/87 88/109/88 104/126/104 103/125/103
f 88/109/88 89/110/89 105/127/105 104/126/104
f 89/110/89 90/111/90 106/128/106 105/127/105
f 90/111/90 91/112/91 107/129/107 106/128/106
f 91/112/91 92/113/92 108/130/108 107/129/107
f 92/113/92 93/114/93 109/131/109 108/130/108
f 93/114/93 94/115/94 110/132/110 109/131/109
f 94/115/94 95/116/95 111/133/111 110/132/110
f 95/116/95 96/117/96 112/134/112 111/133/111
f 96/117/96 81/118/82 97/135/98 112/134/112
f 97/119/98 98/120/97 114/137/113 113/136/114
f 98/120/97 99/121/99 115/138/115 114/137/113
f 99/121/99 100/122/100 116/139/116 115/138/115
f 100/122/100 101/123/101 117/140/117 116/139/116
f 101/123/101 102/124/102 118/141/118 117/140/117
f 102/124/102 103/125/103 119/142/119 118/141/118
f 103/125/103 104/126/104 120/143/120 119/142/119
f 104/126/104 105/127/105 121/144/121 120/143/120
f 105/127/105 106/128/106 122/145/122 121/144/121
f 106/128/106 107/129/107 123/146/123 122/145/122
f 107/129/107 108/130/108 124/147/124 123/146/123
f 108/130/108 109/131/109 125/148/125 124/147/124
f 109/131/109 110/132/110 126/149/126 125/148/125
f 110/132/110 111/133/111 127/150/127 126/149/126
f 111/133/111 112/134/112 128/151/128 127/150/127
f 112/134/112 97/135/98 113/152/114 128/151/128
f 113/136/114 114/137/113 130/154/129 129/153/130
f 114/137/113 115/138/115 131/155/131 130/154/129
f 115/138/115 116/139/116 132/156/132 131/155/131
f 116/139/116 117/140/117 133/157/133 132/156/132
f 117/140/117 118/141/118 134/158/134 133/157/133
f 118/141/118 119/142/119 135/159/135 134/158/134
f 119/142/119 120/143/120 136/160/136 135/159/135
f 120/143/120 121/144/121 137/161/137 136/160/136
f 121/144/121 122/145/122 138/162/138 137/161/137
f 122/145/122 123/146/123 139/163/139 138/162/138
f 123/146/123 124/147/124 140/164/140 139/163/139
f 124/147/124 125/148/125 141/165/141 140/164/140
f 125/148/125 126/149/126 142/166/142 141/165/141
f 126/149/126 127/150/127 143/167/143 142/166/142
f 127/150/127 128/151/128 144/168/144 143/167/143
f 128/151/128 113/152/114 129/169/130 144/168/144
f 129/153/130 130/154/129 146/171/145 145/170/146
f 130/154/129 131/155/131 147/172/147 146/171/145
f 131/155/131 132/156/132 148/173/148 147/172/147
f 132/156/132 133/157/133 149/174/149 148/173/148
f 133/157/133 134/158/134 150/175/150 149/174/149
f 134/158/134 135/159/135 151/176/151 150/175/150
f 135/159/135 136/160/136 152/177/152 151/176/151
f 136/160/136 137/161/137 153/178/153 152/177/152
f 137/161/137 138/162/138 154/179/154 153/178/153
f 138/162/138 139/163/139 155/180/155 154/179/154
f 139/163/139 140/164/140 156/181/156 155/180/155
f 140/164/140 141/165/141 157/182/157 156/181/156
f 141/165/141 142/166/142 158/183/158 157/182/157
f 142/166/142 143/167/143 159/184/159 158/183/158
f 143/167/143 144/168/144 160/185/160 159/184/159
f 144/168/144 129/169/130 145/186/146 160/185/160
f 145/170/146 146/171/145 162/188/161 161/187/162
f 146/171/145 147/172/147 163/189/163 162/188/161
f 147/172/147 148/173/148 164/190/164 163/189/163
f 148/173/148 149/174/149 165/191/165 164/190/164
f 149/174/149 150/175/150 166/192/166 165/191/165
f 150/175/150 151/176/151 167/193/167 166/192/166
f 151/176/151 152/177/152 168/194/168 167/193/167
f 152/177/152 153/178/153 169/195/169 168/194/168
f 153/178/153 154/179/154 170/196/170 169/195/169
f 154/179/154 155/180/155 171/197/171 170/196/170
f 155/180/155 156/181/156 172/198/172 171/197/171
f 156/181/156 157/182/157 173/199/173 172/198/172
f 157/182/157 158/183/158 174/200/174 173/199/173
f 158/183/158 159/184/159 175/201/175 174/200/174
f 159/184/159 160/185/160 176/202/176 175/201/175
f 160/185/160 145/186/146 161/203/162 176/202/176
f 161/187/162 162/188/161 178/205/177 177/204/178
f 162/188/161 163/189/163 179/206/179 178/205/177
f 163/189/163 164/190/164 180/207/180 179/206/179
f 164/190/164 165/191/165 181/208/181 180/207/180
f 165/191/165 166/192/166 182/209/182 181/208/181
f 166/192/166 167/193/167 183/210/183 182/209/182
f 167/193/167 168/194/168 184/211/184 183/210/183
f 168/194/168 169/195/169 185/212/185 184/211/184
f 169/195/169 170/196/170 186/213/186 185/212/185
f 170/196/170 171/197/171 187/214/187 186/213/186
f 171/197/171 172/198/172 188/215/188 187/214/187
f 172/198/172 173/199/173 189/216/189 188/215/188
f 173/199/173 174/200/174 190/217/190 189/216/189
f 174/200/174 175/201/175 191/218/191 190/217/190
f 175/201/175 176/202/176 192/219/192 191/218/191
f 176/202/176 161/203/162 177/220/178 192/219/192
f 177/204/178 178/205/177 194/222/193 193/221/194
f 178/205/177 179/206/179 195/223/195 194/222/193
f 179/206/179 180/207/180 196/224/196 195/223/195
f 180/207/180 181/208/181 197/225/197 196/224/196
f 181/208/181 182/209/182 198/226/198 197/225/197
f 182/209/182 183/210/183 199/227/199 198/226/198
f 183/210/183 184/211/184 200/228/200 199/227/199
f 184/211/184 185/212/185 201/229/201 200/228/200
f 185/212/185 186/213/186 202/230/202 201/229/201
f 186/213/186 187/214/187 203/231/203 202/230/202
f 187/214/187 188/215/188 204/232/204 203/231/203
f 188/215/188 189/216/189 205/233/205 204/232/204
f 189/216/189 190/217/190 206/234/206 205/233/205
f 190/217/190 191/218/191 207/235/207 206/234/206
f 191/218/191 192/219/192 208/236/208 207/235/207
f 192/219/192 177/220/178 193/237/194 208/236/208
f 193/221/194 194/222/193 210/239/209 209/238/210
f 194/222/193 195/223/195 211/240/211 210/239/209
f 195/223/195 196/224/196 212/241/212 211/240/211
f 196/224/196 197/225/197 213/242/213 212/241/212
f 197/225/197 198/226/198 214/243/214 213/242/213
f 198/226/198 199/227/199 215/244/215 214/243/214
f 199/227/199 200/228/200 216/245/216 215/244/215
f 200/228/200 201/229/201 217/246/217 216/245/216
f 201/229/201 202/230/202 218/247/218 217/246/217
f 202/230/202 203/231/203 219/248/219 218/247/218
f 203/231/203 204/232/204 220/249/220 219/248/219
f 204/232/204 205/233/205 221/250/221 220/249/220
f 205/233/205 206/234/206 222/251/222 221/250/221
f 206/234/206 207/235/207 223/252/223 222/251/222
f 207/235/207 208/236/208 224/253/224 223/252/223
f 208/236/208 193/237/194 209/254/210 224/253/224
f 209/238/210 210/239/209 226/256/225 225/255/226
f 210/239/209 211/240/211 227/257/227 226/256/225
f 211/240/211 212/241/212 228/258/228 227/257/227
f 212/241/212 213/242/213 229/259/229 228/258/228
f 213/242/213 214/243/214 230/260/230 229/259/229
f 214/243/214 215/244/215 231/261/231 230/260/230
f 215/244/215 216/245/216 232/262/232 231/261/231
f 216/245/216 217/246/217 233/263/233 232/262/232
f 217/246/217 218/247/218 234/264/234 233/263/233
f 218/247/218 219/248/219 235/265/235 234/264/234
f 219/248/219 220/249/220 236/266/236 235/265/235
f 220/249/220 221/250/221 237/267/237 236/266/236
f 221/250/221 222/251/222 238/268/238 237/267/237
f 222/251/222 223/252/223 239/269/239 238/268/238
f 223/252/223 224/253/224 240/270/240 239/269/239
f 224/253/224 209/254/210 225/271/226 240/270/240
f 225/255/226 226/256/225 242/273/241 241/272/242
f 226/256/225 227/257/227 243/274/243 242/273/241
f 227/257/227 228/258/228 244/275/244 243/274/243
f 228/258/228 229/259/229 245/276/245 244/275/244
f 229/259/229 230/260/230 246/277/246 245/276/245
f 230/260/230 231/261/231 247/278/247 246/277/246
f 231/261/231 232/262/232 248/279/248 247/278/247
f 232/262/232 233/263/233 249/280/249 248/279/248
f 233/263/233 234/264/234 250/281/250 249/280/249
f 234/264/234 235/265/235 251/282/251 250/281/250
f 235/265/235 236/266/236 252/283/252 251/282/251
f 236/266/236 237/267/237 253/284/253 252/283/252
f 237/267/237 238/268/238 254/285/254 253/284/253
f 238/268/238 239/269/239 255/286/255 254/285/254
f 239/269/239 240/270/240 256/287/256 255/286/255
f 240/270/240 225/271/226 241/288/242 256/287/256
f 241/272/242 242/273/241 258/290/257 257/289/258
f 242/273/241 243/274/243 259/291/259 258/290/257
f 243/274/243 244/275/244 260/292/260 259/291/259
f 244/275/244 245/276/245 261/293/261 260/292/260
f 245/276/245 246/277/246 262/294/262 261/293/261
f 246/277/246 247/278/247 263/295/263 262/294/262
f 247/278/247 248/279/248 264/296/264 263/295/263
f 248/279/248 249/280/249 265/297/265 264/296/264
f 249/280/249 250/281/250 266/298/266 265/297/265
f 250/281/250 251/282/251 267/299/267 266/298/266
f 251/282/251 252/283/252 268/300/268 267/299/267
f 252/283/252 253/284/253 269/301/269 268/300/268
f 253/284/253 254/285/254 270/302/270 269/301/269
f 254/285/254 255/286/255 271/303/271 270/302/270
f 255/286/255 256/287/256 272/304/272 271/303/271
f 256/287/256 241/288/242 257/305/258 272/304/272
s off
f 1/1/273 16/16/274 15/15/275 14/14/276 13/13/277 12/12/278 11/11/279 10/10/280 9/9/281 8/8/282 7/7/283 6/6/284 5/5/285 4/4/286 3/3/287 2/2/288
f 257/320/289 258/319/290 259/318/291 260/317/292 261/316/293 262/315/294 263/314/295 264/313/296 265/312/297 266/311/298 267/310/299 268/309/300 269/308/301 270/307/302 271/306/303 272/321/304
