# This file uses centimeters as units for non-parametric coordinates.

g default
v 0.467086 -0.178411 0.000000
v 0.467086 0.178411 0.000000
v 0.178411 0.000000 -0.467086
v 0.288675 0.288675 -0.288675
v 0.288675 -0.288675 -0.288675
v 0.178411 0.000000 0.467086
v 0.288675 -0.288675 0.288675
v 0.288675 0.288675 0.288675
v -0.467086 -0.178411 0.000000
v -0.467086 0.178411 0.000000
v -0.178411 0.000000 0.467086
v -0.288675 -0.288675 0.288675
v -0.288675 0.288675 0.288675
v -0.178411 0.000000 -0.467086
v -0.288675 0.288675 -0.288675
v -0.288675 -0.288675 -0.288675
v 0.000000 -0.467086 0.178411
v 0.000000 0.467086 0.178411
v 0.000000 0.467086 -0.178411
v 0.000000 -0.467086 -0.178411
vt 0.099106 0.000000
vt 0.221609 0.000000
vt 0.259464 0.236068
vt 0.160357 0.381966
vt 0.061251 0.236068
vt 0.037855 0.381966
vt 0.198213 0.618034
vt 0.099106 0.763932
vt 0.000000 0.618034
vt 0.320715 0.618034
vt 0.358570 0.854102
vt 0.259464 1.000000
vt 0.160357 0.854102
vt 0.358570 0.381966
vt 0.481072 0.381966
vt 0.518928 0.618034
vt 0.419821 0.763932
vt 0.297319 0.000000
vt 0.419821 0.000000
vt 0.457677 0.236068
vt 0.740536 0.000000
vt 0.839643 0.145898
vt 0.801787 0.381966
vt 0.679285 0.381966
vt 0.641430 0.145898
vt 0.580179 0.236068
vt 0.641430 0.618034
vt 0.740536 0.763932
vt 0.702681 1.000000
vt 0.580179 1.000000
vt 0.542323 0.763932
vt 0.839643 0.618034
vt 0.938749 0.763932
vt 0.900894 1.000000
vt 0.778391 1.000000
vt 0.900894 0.236068
vt 1.000000 0.381966
vt 0.962145 0.618034
vn 0.934172 -0.356822 -0.000000
vn 0.577350 -0.577350 -0.577350
vn 0.356822 0.000000 -0.934172
vn 0.577350 0.577350 -0.577350
vn 0.934172 0.356822 0.000000
vn 0.577350 0.577350 0.577350
vn 0.356822 0.000000 0.934172
vn 0.577350 -0.577350 0.577350
vn 0.000000 -0.934172 0.356822
vn 0.000000 -0.934172 -0.356822
vn -0.356822 0.000000 0.934172
vn -0.577350 -0.577350 0.577350
vn -0.934172 -0.356822 0.000000
vn -0.577350 -0.577350 -0.577350
vn -0.356822 0.000000 -0.934172
vn -0.577350 0.577350 -0.577350
vn 0.000000 0.934172 -0.356822
vn 0.000000 0.934172 0.356822
vn -0.577350 0.577350 0.577350
vn -0.934172 0.356822 0.000000
s 1
g maya_platonic_solid
f 1/7/1 5/8/2 3/9/3 4/6/4 2/4/5
f 8/3/6 6/14/7 7/10/8 1/7/1 2/4/5
f 1/7/1 7/10/8 17/11/9 20/12/10 5/13/2
f 6/14/7 11/15/11 12/16/12 17/17/9 7/10/8
f 17/30/9 12/31/12 9/27/13 16/28/14 20/29/10
f 5/34/2 20/35/10 16/28/14 14/32/15 3/33/3
f 3/38/3 14/32/15 15/23/16 19/36/17 4/37/4
f 2/4/5 4/5/4 19/1/17 18/2/18 8/3/6
f 8/3/6 18/18/18 13/19/19 11/20/11 6/14/7
f 9/27/13 12/16/12 11/15/11 13/26/19 10/24/20
f 10/24/20 13/25/19 18/21/18 19/22/17 15/23/16
f 10/24/20 15/23/16 14/32/15 16/28/14 9/27/13
