# This file uses centimeters as units for non-parametric coordinates.

g default
v -0.072169 -0.500000 -0.125000
v -0.072169 -0.500000 0.125000
v 0.144338 -0.500000 0.000000
v -0.144338 -0.500000 -0.250000
v -0.144338 -0.500000 0.250000
v 0.288675 -0.500000 0.000000
v -0.216506 -0.500000 -0.375000
v -0.216506 -0.500000 0.375000
v 0.433013 -0.500000 0.000000
v -0.288675 -0.500000 -0.500000
v -0.288675 -0.500000 0.500000
v 0.577350 -0.500000 0.000000
v -0.288675 0.500000 -0.500000
v -0.288675 0.500000 0.500000
v 0.577350 0.500000 0.000000
v -0.216506 0.500000 -0.375000
v -0.216506 0.500000 0.375000
v 0.433013 0.500000 0.000000
v -0.144338 0.500000 -0.250000
v -0.144338 0.500000 0.250000
v 0.288675 0.500000 0.000000
v -0.072169 0.500000 -0.125000
v -0.072169 0.500000 0.125000
v 0.144338 0.500000 0.000000
v 0.000000 -0.500000 0.000000
v 0.000000 0.500000 0.000000
vt 0.439380 0.097937
vt 0.439380 0.152063
vt 0.626880 0.125000
vt 0.376880 0.070873
vt 0.376880 0.179127
vt 0.751880 0.125000
vt 0.314380 0.043810
vt 0.314380 0.206190
vt 0.876880 0.125000
vt 0.251880 0.016747
vt 0.251880 0.233253
vt 1.001880 0.125000
vt 0.000000 0.250000
vt 0.333333 0.250000
vt 0.666667 0.250000
vt 1.000000 0.250000
vt 0.000000 0.750000
vt 0.333333 0.750000
vt 0.666667 0.750000
vt 1.000000 0.750000
vt 0.251880 0.766747
vt 0.251880 0.983253
vt 1.001880 0.875000
vt 0.314380 0.793810
vt 0.314380 0.956190
vt 0.876880 0.875000
vt 0.376880 0.820873
vt 0.376880 0.929127
vt 0.751880 0.875000
vt 0.439380 0.847937
vt 0.439380 0.902063
vt 0.626880 0.875000
vt 0.501880 0.125000
vt 0.501880 0.875000
vn 0.000000 -1.000000 -0.000000
vn 0.000000 -1.000000 -0.000000
vn 0.000000 -1.000000 -0.000000
vn 0.000000 -1.000000 0.000000
vn 0.000000 -1.000000 -0.000000
vn 0.000000 -1.000000 -0.000000
vn 0.000000 -1.000000 -0.000000
vn 0.000000 -1.000000 -0.000000
vn 0.000000 -1.000000 -0.000000
vn 0.000000 -1.000000 -0.000000
vn 0.000000 -1.000000 -0.000000
vn 0.000000 -1.000000 -0.000000
vn -1.000000 0.000000 -0.000000
vn -1.000000 0.000000 -0.000000
vn -1.000000 0.000000 -0.000000
vn -1.000000 0.000000 -0.000000
vn 0.500000 0.000000 0.866025
vn 0.500000 0.000000 0.866025
vn 0.500000 0.000000 0.866025
vn 0.500000 0.000000 0.866025
vn 0.500000 0.000000 -0.866025
vn 0.500000 0.000000 -0.866025
vn 0.500000 0.000000 -0.866025
vn 0.500000 0.000000 -0.866025
vn 0.000000 1.000000 -0.000000
vn 0.000000 1.000000 -0.000000
vn 0.000000 1.000000 -0.000000
vn 0.000000 1.000000 -0.000000
vn 0.000000 1.000000 -0.000000
vn 0.000000 1.000000 -0.000000
vn 0.000000 1.000000 -0.000000
vn 0.000000 1.000000 0.000000
vn 0.000000 1.000000 -0.000000
vn 0.000000 1.000000 -0.000000
vn 0.000000 1.000000 0.000000
vn 0.000000 1.000000 -0.000000
vn 0.000000 -1.000000 -0.000000
vn 0.000000 1.000000 -0.000000
s 1
g maya_prism
f 1/1/1 2/2/2 5/5/3 4/4/4
f 2/2/2 3/3/5 6/6/6 5/5/3
f 3/3/5 1/1/1 4/4/4 6/6/6
f 4/4/4 5/5/3 8/8/7 7/7/8
f 5/5/3 6/6/6 9/9/9 8/8/7
f 6/6/6 4/4/4 7/7/8 9/9/9
f 7/7/8 8/8/7 11/11/10 10/10/11
f 8/8/7 9/9/9 12/12/12 11/11/10
f 9/9/9 7/7/8 10/10/11 12/12/12
s off
f 10/13/13 11/14/14 14/18/15 13/17/16
f 11/14/17 12/15/18 15/19/19 14/18/20
f 12/15/21 10/16/22 13/20/23 15/19/24
s 2
f 13/22/25 14/21/26 17/24/27 16/25/28
f 14/21/26 15/23/29 18/26/30 17/24/27
f 15/23/29 13/22/25 16/25/28 18/26/30
f 16/25/28 17/24/27 20/27/31 19/28/32
f 17/24/27 18/26/30 21/29/33 20/27/31
f 18/26/30 16/25/28 19/28/32 21/29/33
f 19/28/32 20/27/31 23/30/34 22/31/35
f 20/27/31 21/29/33 24/32/36 23/30/34
f 21/29/33 19/28/32 22/31/35 24/32/36
s 1
f 2/2/2 1/1/1 25/33/37
f 3/3/5 2/2/2 25/33/37
f 1/1/1 3/3/5 25/33/37
s 2
f 22/31/35 23/30/34 26/34/38
f 23/30/34 24/32/36 26/34/38
f 24/32/36 22/31/35 26/34/38
