# This file uses centimeters as units for non-parametric coordinates.

g default
v 0.176777 -0.461940 -0.073223
v 0.135299 -0.461940 -0.135299
v 0.073223 -0.461940 -0.176777
v 0.000000 -0.461940 -0.191342
v -0.073223 -0.461940 -0.176777
v -0.135299 -0.461940 -0.135299
v -0.176777 -0.461940 -0.073223
v -0.191342 -0.461940 -0.000000
v -0.176777 -0.461940 0.073223
v -0.135299 -0.461940 0.135299
v -0.073223 -0.461940 0.176777
v -0.000000 -0.461940 0.191342
v 0.073223 -0.461940 0.176777
v 0.135299 -0.461940 0.135299
v 0.176777 -0.461940 0.073223
v 0.191342 -0.461940 0.000000
v 0.326641 -0.353553 -0.135299
v 0.250000 -0.353553 -0.250000
v 0.135299 -0.353553 -0.326641
v 0.000000 -0.353553 -0.353553
v -0.135299 -0.353553 -0.326641
v -0.250000 -0.353553 -0.250000
v -0.326641 -0.353553 -0.135299
v -0.353553 -0.353553 -0.000000
v -0.326641 -0.353553 0.135299
v -0.250000 -0.353553 0.250000
v -0.135299 -0.353553 0.326641
v -0.000000 -0.353553 0.353553
v 0.135299 -0.353553 0.326641
v 0.250000 -0.353553 0.250000
v 0.326641 -0.353553 0.135299
v 0.353553 -0.353553 0.000000
v 0.426777 -0.191342 -0.176776
v 0.326641 -0.191342 -0.326641
v 0.176777 -0.191342 -0.426777
v 0.000000 -0.191342 -0.461940
v -0.176776 -0.191342 -0.426777
v -0.326641 -0.191342 -0.326641
v -0.426777 -0.191342 -0.176777
v -0.461940 -0.191342 -0.000000
v -0.426777 -0.191342 0.176777
v -0.326641 -0.191342 0.326641
v -0.176777 -0.191342 0.426777
v -0.000000 -0.191342 0.461940
v 0.176777 -0.191342 0.426777
v 0.326641 -0.191342 0.326641
v 0.426777 -0.191342 0.176777
v 0.461940 -0.191342 0.000000
v 0.461940 0.000000 -0.191341
v 0.353554 0.000000 -0.353553
v 0.191342 0.000000 -0.461940
v 0.000000 0.000000 -0.500000
v -0.191341 0.000000 -0.461940
v -0.353553 0.000000 -0.353554
v -0.461940 0.000000 -0.191342
v -0.500000 0.000000 -0.000000
v -0.461940 0.000000 0.191342
v -0.353553 0.000000 0.353553
v -0.191342 0.000000 0.461940
v -0.000000 0.000000 0.500000
v 0.191342 0.000000 0.461940
v 0.353553 0.000000 0.353553
v 0.461940 0.000000 0.191342
v 0.500000 0.000000 0.000000
v 0.426777 0.191342 -0.176776
v 0.326641 0.191342 -0.326641
v 0.176777 0.191342 -0.426777
v 0.000000 0.191342 -0.461940
v -0.176776 0.191342 -0.426777
v -0.326641 0.191342 -0.326641
v -0.426777 0.191342 -0.176777
v -0.461940 0.191342 -0.000000
v -0.426777 0.191342 0.176777
v -0.326641 0.191342 0.326641
v -0.176777 0.191342 0.426777
v -0.000000 0.191342 0.461940
v 0.176777 0.191342 0.426777
v 0.326641 0.191342 0.326641
v 0.426777 0.191342 0.176777
v 0.461940 0.191342 0.000000
v 0.326641 0.353553 -0.135299
v 0.250000 0.353553 -0.250000
v 0.135299 0.353553 -0.326641
v 0.000000 0.353553 -0.353553
v -0.135299 0.353553 -0.326641
v -0.250000 0.353553 -0.250000
v -0.326641 0.353553 -0.135299
v -0.353553 0.353553 -0.000000
v -0.326641 0.353553 0.135299
v -0.250000 0.353553 0.250000
v -0.135299 0.353553 0.326641
v -0.000000 0.353553 0.353553
v 0.135299 0.353553 0.326641
v 0.250000 0.353553 0.250000
v 0.326641 0.353553 0.135299
v 0.353553 0.353553 0.000000
v 0.176777 0.461940 -0.073223
v 0.135299 0.461940 -0.135299
v 0.073223 0.461940 -0.176777
v 0.000000 0.461940 -0.191342
v -0.073223 0.461940 -0.176777
v -0.135299 0.461940 -0.135299
v -0.176777 0.461940 -0.073223
v -0.191342 0.461940 -0.000000
v -0.176777 0.461940 0.073223
v -0.135299 0.461940 0.135299
v -0.073223 0.461940 0.176777
v -0.000000 0.461940 0.191342
v 0.073223 0.461940 0.176777
v 0.135299 0.461940 0.135299
v 0.176777 0.461940 0.073223
v 0.191342 0.461940 0.000000
v 0.000000 -0.500000 0.000000
v 0.000000 0.500000 0.000000
vt 0.000000 0.125000
vt 0.062500 0.125000
vt 0.125000 0.125000
vt 0.187500 0.125000
vt 0.250000 0.125000
vt 0.312500 0.125000
vt 0.375000 0.125000
vt 0.437500 0.125000
vt 0.500000 0.125000
vt 0.562500 0.125000
vt 0.625000 0.125000
vt 0.687500 0.125000
vt 0.750000 0.125000
vt 0.812500 0.125000
vt 0.875000 0.125000
vt 0.937500 0.125000
vt 1.000000 0.125000
vt 0.000000 0.250000
vt 0.062500 0.250000
vt 0.125000 0.250000
vt 0.187500 0.250000
vt 0.250000 0.250000
vt 0.312500 0.250000
vt 0.375000 0.250000
vt 0.437500 0.250000
vt 0.500000 0.250000
vt 0.562500 0.250000
vt 0.625000 0.250000
vt 0.687500 0.250000
vt 0.750000 0.250000
vt 0.812500 0.250000
vt 0.875000 0.250000
vt 0.937500 0.250000
vt 1.000000 0.250000
vt 0.000000 0.375000
vt 0.062500 0.375000
vt 0.125000 0.375000
vt 0.187500 0.375000
vt 0.250000 0.375000
vt 0.312500 0.375000
vt 0.375000 0.375000
vt 0.437500 0.375000
vt 0.500000 0.375000
vt 0.562500 0.375000
vt 0.625000 0.375000
vt 0.687500 0.375000
vt 0.750000 0.375000
vt 0.812500 0.375000
vt 0.875000 0.375000
vt 0.937500 0.375000
vt 1.000000 0.375000
vt 0.000000 0.500000
vt 0.062500 0.500000
vt 0.125000 0.500000
vt 0.187500 0.500000
vt 0.250000 0.500000
vt 0.312500 0.500000
vt 0.375000 0.500000
vt 0.437500 0.500000
vt 0.500000 0.500000
vt 0.562500 0.500000
vt 0.625000 0.500000
vt 0.687500 0.500000
vt 0.750000 0.500000
vt 0.812500 0.500000
vt 0.875000 0.500000
vt 0.937500 0.500000
vt 1.000000 0.500000
vt 0.000000 0.625000
vt 0.062500 0.625000
vt 0.125000 0.625000
vt 0.187500 0.625000
vt 0.250000 0.625000
vt 0.312500 0.625000
vt 0.375000 0.625000
vt 0.437500 0.625000
vt 0.500000 0.625000
vt 0.562500 0.625000
vt 0.625000 0.625000
vt 0.687500 0.625000
vt 0.750000 0.625000
vt 0.812500 0.625000
vt 0.875000 0.625000
vt 0.937500 0.625000
vt 1.000000 0.625000
vt 0.000000 0.750000
vt 0.062500 0.750000
vt 0.125000 0.750000
vt 0.187500 0.750000
vt 0.250000 0.750000
vt 0.312500 0.750000
vt 0.375000 0.750000
vt 0.437500 0.750000
vt 0.500000 0.750000
vt 0.562500 0.750000
vt 0.625000 0.750000
vt 0.687500 0.750000
vt 0.750000 0.750000
vt 0.812500 0.750000
vt 0.875000 0.750000
vt 0.937500 0.750000
vt 1.000000 0.750000
vt 0.000000 0.875000
vt 0.062500 0.875000
vt 0.125000 0.875000
vt 0.187500 0.875000
vt 0.250000 0.875000
vt 0.312500 0.875000
vt 0.375000 0.875000
vt 0.437500 0.875000
vt 0.500000 0.875000
vt 0.562500 0.875000
vt 0.625000 0.875000
vt 0.687500 0.875000
vt 0.750000 0.875000
vt 0.812500 0.875000
vt 0.875000 0.875000
vt 0.937500 0.875000
vt 1.000000 0.875000
vt 0.031250 0.000000
vt 0.093750 0.000000
vt 0.156250 0.000000
vt 0.218750 0.000000
vt 0.281250 0.000000
vt 0.343750 0.000000
vt 0.406250 0.000000
vt 0.468750 0.000000
vt 0.531250 0.000000
vt 0.593750 0.000000
vt 0.656250 0.000000
vt 0.718750 0.000000
vt 0.781250 0.000000
vt 0.843750 0.000000
vt 0.906250 0.000000
vt 0.968750 0.000000
vt 0.031250 1.000000
vt 0.093750 1.000000
vt 0.156250 1.000000
vt 0.218750 1.000000
vt 0.281250 1.000000
vt 0.343750 1.000000
vt 0.406250 1.000000
vt 0.468750 1.000000
vt 0.531250 1.000000
vt 0.593750 1.000000
vt 0.656250 1.000000
vt 0.718750 1.000000
vt 0.781250 1.000000
vt 0.843750 1.000000
vt 0.906250 1.000000
vt 0.968750 1.000000
vn 0.513280 -0.831470 -0.212607
vn 0.392848 -0.831470 -0.392847
vn 0.392848 -0.831470 -0.392847
vn 0.513280 -0.831470 -0.212607
vn 0.212608 -0.831470 -0.513280
vn 0.212608 -0.831470 -0.513280
vn 0.000000 -0.831470 -0.555570
vn 0.000000 -0.831470 -0.555570
vn -0.212607 -0.831470 -0.513280
vn -0.212607 -0.831470 -0.513280
vn -0.392847 -0.831470 -0.392848
vn -0.392847 -0.831470 -0.392848
vn -0.513280 -0.831470 -0.212608
vn -0.513280 -0.831470 -0.212608
vn -0.555570 -0.831470 -0.000000
vn -0.555570 -0.831470 -0.000000
vn -0.513280 -0.831470 0.212607
vn -0.513280 -0.831470 0.212607
vn -0.392848 -0.831470 0.392847
vn -0.392848 -0.831470 0.392847
vn -0.212608 -0.831470 0.513280
vn -0.212608 -0.831470 0.513280
vn -0.000000 -0.831470 0.555570
vn -0.000000 -0.831470 0.555570
vn 0.212608 -0.831470 0.513280
vn 0.212607 -0.831470 0.513280
vn 0.392847 -0.831470 0.392848
vn 0.392847 -0.831470 0.392848
vn 0.513280 -0.831470 0.212608
vn 0.513280 -0.831470 0.212608
vn 0.555570 -0.831470 0.000000
vn 0.555570 -0.831470 0.000000
vn 0.768178 -0.555570 -0.318190
vn 0.587938 -0.555570 -0.587938
vn 0.587938 -0.555570 -0.587938
vn 0.768178 -0.555570 -0.318189
vn 0.318190 -0.555570 -0.768178
vn 0.318190 -0.555570 -0.768178
vn 0.000000 -0.555570 -0.831470
vn 0.000000 -0.555570 -0.831470
vn -0.318189 -0.555570 -0.768178
vn -0.318189 -0.555570 -0.768178
vn -0.587938 -0.555570 -0.587938
vn -0.587938 -0.555570 -0.587938
vn -0.768178 -0.555570 -0.318190
vn -0.768178 -0.555570 -0.318190
vn -0.831470 -0.555570 -0.000000
vn -0.831470 -0.555570 -0.000000
vn -0.768178 -0.555570 0.318190
vn -0.768178 -0.555570 0.318189
vn -0.587938 -0.555570 0.587938
vn -0.587938 -0.555570 0.587938
vn -0.318190 -0.555570 0.768178
vn -0.318190 -0.555570 0.768178
vn -0.000000 -0.555570 0.831470
vn -0.000000 -0.555570 0.831470
vn 0.318190 -0.555570 0.768178
vn 0.318190 -0.555570 0.768178
vn 0.587938 -0.555570 0.587938
vn 0.587938 -0.555570 0.587938
vn 0.768178 -0.555570 0.318190
vn 0.768178 -0.555570 0.318190
vn 0.831470 -0.555570 0.000000
vn 0.831470 -0.555570 0.000000
vn 0.906128 -0.195091 -0.375330
vn 0.693520 -0.195090 -0.693520
vn 0.693520 -0.195090 -0.693520
vn 0.906128 -0.195091 -0.375330
vn 0.375331 -0.195090 -0.906127
vn 0.375331 -0.195090 -0.906127
vn 0.000000 -0.195090 -0.980785
vn 0.000000 -0.195090 -0.980785
vn -0.375330 -0.195090 -0.906128
vn -0.375330 -0.195090 -0.906128
vn -0.693520 -0.195090 -0.693520
vn -0.693520 -0.195090 -0.693520
vn -0.906127 -0.195091 -0.375331
vn -0.906127 -0.195091 -0.375331
vn -0.980785 -0.195091 -0.000000
vn -0.980785 -0.195091 -0.000000
vn -0.906128 -0.195090 0.375330
vn -0.906128 -0.195090 0.375330
vn -0.693520 -0.195090 0.693520
vn -0.693520 -0.195090 0.693520
vn -0.375331 -0.195090 0.906127
vn -0.375331 -0.195090 0.906127
vn -0.000000 -0.195090 0.980785
vn -0.000000 -0.195090 0.980785
vn 0.375330 -0.195090 0.906128
vn 0.375330 -0.195090 0.906128
vn 0.693520 -0.195090 0.693520
vn 0.693520 -0.195090 0.693520
vn 0.906127 -0.195090 0.375330
vn 0.906127 -0.195090 0.375330
vn 0.980785 -0.195090 0.000000
vn 0.980785 -0.195090 0.000000
vn 0.906128 0.195090 -0.375330
vn 0.693520 0.195090 -0.693520
vn 0.693520 0.195090 -0.693520
vn 0.906128 0.195090 -0.375330
vn 0.375331 0.195090 -0.906127
vn 0.375331 0.195090 -0.906127
vn 0.000000 0.195090 -0.980785
vn 0.000000 0.195090 -0.980785
vn -0.375330 0.195090 -0.906128
vn -0.375330 0.195090 -0.906128
vn -0.693520 0.195090 -0.693520
vn -0.693520 0.195090 -0.693520
vn -0.906127 0.195091 -0.375331
vn -0.906127 0.195091 -0.375331
vn -0.980785 0.195091 -0.000000
vn -0.980785 0.195091 -0.000000
vn -0.906128 0.195090 0.375330
vn -0.906128 0.195090 0.375330
vn -0.693520 0.195090 0.693520
vn -0.693520 0.195090 0.693520
vn -0.375331 0.195090 0.906127
vn -0.375331 0.195090 0.906127
vn -0.000000 0.195090 0.980785
vn -0.000000 0.195090 0.980785
vn 0.375330 0.195090 0.906128
vn 0.375330 0.195090 0.906128
vn 0.693520 0.195090 0.693520
vn 0.693520 0.195090 0.693520
vn 0.906127 0.195090 0.375330
vn 0.906127 0.195090 0.375330
vn 0.980785 0.195090 0.000000
vn 0.980785 0.195090 0.000000
vn 0.768178 0.555570 -0.318190
vn 0.587938 0.555570 -0.587938
vn 0.587938 0.555570 -0.587938
vn 0.768178 0.555570 -0.318190
vn 0.318190 0.555570 -0.768178
vn 0.318190 0.555570 -0.768178
vn 0.000000 0.555570 -0.831470
vn 0.000000 0.555570 -0.831470
vn -0.318189 0.555570 -0.768178
vn -0.318189 0.555570 -0.768178
vn -0.587937 0.555570 -0.587938
vn -0.587938 0.555570 -0.587938
vn -0.768178 0.555570 -0.318190
vn -0.768178 0.555570 -0.318190
vn -0.831470 0.555570 -0.000000
vn -0.831470 0.555570 -0.000000
vn -0.768178 0.555570 0.318189
vn -0.768178 0.555570 0.318189
vn -0.587938 0.555570 0.587938
vn -0.587938 0.555570 0.587938
vn -0.318190 0.555570 0.768178
vn -0.318190 0.555570 0.768178
vn -0.000000 0.555570 0.831470
vn -0.000000 0.555570 0.831470
vn 0.318190 0.555570 0.768178
vn 0.318190 0.555570 0.768178
vn 0.587938 0.555570 0.587938
vn 0.587938 0.555570 0.587938
vn 0.768178 0.555570 0.318190
vn 0.768178 0.555570 0.318190
vn 0.831470 0.555570 0.000000
vn 0.831470 0.555570 0.000000
vn 0.513280 0.831470 -0.212607
vn 0.392848 0.831470 -0.392847
vn 0.392848 0.831470 -0.392847
vn 0.513280 0.831470 -0.212607
vn 0.212608 0.831470 -0.513280
vn 0.212608 0.831470 -0.513280
vn 0.000000 0.831470 -0.555570
vn 0.000000 0.831470 -0.555570
vn -0.212607 0.831470 -0.513280
vn -0.212607 0.831470 -0.513280
vn -0.392847 0.831470 -0.392848
vn -0.392847 0.831470 -0.392848
vn -0.513280 0.831470 -0.212608
vn -0.513280 0.831470 -0.212608
vn -0.555570 0.831470 -0.000000
vn -0.555570 0.831470 -0.000000
vn -0.513280 0.831470 0.212607
vn -0.513280 0.831470 0.212607
vn -0.392848 0.831470 0.392847
vn -0.392848 0.831470 0.392847
vn -0.212608 0.831470 0.513280
vn -0.212608 0.831470 0.513280
vn -0.000000 0.831470 0.555570
vn -0.000000 0.831470 0.555570
vn 0.212608 0.831470 0.513280
vn 0.212608 0.831470 0.513280
vn 0.392848 0.831470 0.392848
vn 0.392847 0.831470 0.392848
vn 0.513280 0.831470 0.212608
vn 0.513280 0.831470 0.212608
vn 0.555570 0.831470 0.000000
vn 0.555570 0.831470 0.000000
vn 0.137950 -0.980785 -0.137949
vn 0.180240 -0.980785 -0.074658
vn -0.000000 -1.000000 0.000000
vn 0.074658 -0.980785 -0.180240
vn 0.000000 -0.980785 -0.195091
vn -0.074658 -0.980785 -0.180240
vn -0.137950 -0.980785 -0.137950
vn -0.180240 -0.980785 -0.074658
vn -0.195090 -0.980785 0.000001
vn -0.180240 -0.980785 0.074658
vn -0.137950 -0.980785 0.137950
vn -0.074658 -0.980785 0.180240
vn -0.000000 -0.980785 0.195090
vn 0.074658 -0.980785 0.180240
vn 0.137950 -0.980785 0.137950
vn 0.180240 -0.980785 0.074658
vn 0.195090 -0.980785 -0.000000
vn 0.180240 0.980785 -0.074658
vn 0.137950 0.980785 -0.137950
vn -0.000000 1.000000 0.000000
vn 0.074658 0.980785 -0.180240
vn 0.000000 0.980785 -0.195090
vn -0.074658 0.980785 -0.180240
vn -0.137950 0.980785 -0.137950
vn -0.180240 0.980785 -0.074658
vn -0.195090 0.980785 0.000001
vn -0.180240 0.980785 0.074658
vn -0.137950 0.980785 0.137950
vn -0.074658 0.980785 0.180240
vn -0.000000 0.980785 0.195090
vn 0.074658 0.980785 0.180240
vn 0.137950 0.980785 0.137950
vn 0.180240 0.980785 0.074658
vn 0.195090 0.980785 -0.000000
s 1
g maya_sphere
f 1/1/1 2/2/2 18/19/3 17/18/4
f 2/2/2 3/3/5 19/20/6 18/19/3
f 3/3/5 4/4/7 20/21/8 19/20/6
f 4/4/7 5/5/9 21/22/10 20/21/8
f 5/5/9 6/6/11 22/23/12 21/22/10
f 6/6/11 7/7/13 23/24/14 22/23/12
f 7/7/13 8/8/15 24/25/16 23/24/14
f 8/8/15 9/9/17 25/26/18 24/25/16
f 9/9/17 10/10/19 26/27/20 25/26/18
f 10/10/19 11/11/21 27/28/22 26/27/20
f 11/11/21 12/12/23 28/29/24 27/28/22
f 12/12/23 13/13/25 29/30/26 28/29/24
f 13/13/25 14/14/27 30/31/28 29/30/26
f 14/14/27 15/15/29 31/32/30 30/31/28
f 15/15/29 16/16/31 32/33/32 31/32/30
f 16/16/31 1/17/1 17/34/4 32/33/32
s 2
f 17/18/33 18/19/34 34/36/35 33/35/36
f 18/19/34 19/20/37 35/37/38 34/36/35
f 19/20/37 20/21/39 36/38/40 35/37/38
f 20/21/39 21/22/41 37/39/42 36/38/40
f 21/22/41 22/23/43 38/40/44 37/39/42
f 22/23/43 23/24/45 39/41/46 38/40/44
f 23/24/45 24/25/47 40/42/48 39/41/46
f 24/25/47 25/26/49 41/43/50 40/42/48
f 25/26/49 26/27/51 42/44/52 41/43/50
f 26/27/51 27/28/53 43/45/54 42/44/52
f 27/28/53 28/29/55 44/46/56 43/45/54
f 28/29/55 29/30/57 45/47/58 44/46/56
f 29/30/57 30/31/59 46/48/60 45/47/58
f 30/31/59 31/32/61 47/49/62 46/48/60
f 31/32/61 32/33/63 48/50/64 47/49/62
f 32/33/63 17/34/33 33/51/36 48/50/64
s 3
f 33/35/65 34/36/66 50/53/67 49/52/68
f 34/36/66 35/37/69 51/54/70 50/53/67
f 35/37/69 36/38/71 52/55/72 51/54/70
f 36/38/71 37/39/73 53/56/74 52/55/72
f 37/39/73 38/40/75 54/57/76 53/56/74
f 38/40/75 39/41/77 55/58/78 54/57/76
f 39/41/77 40/42/79 56/59/80 55/58/78
f 40/42/79 41/43/81 57/60/82 56/59/80
f 41/43/81 42/44/83 58/61/84 57/60/82
f 42/44/83 43/45/85 59/62/86 58/61/84
f 43/45/85 44/46/87 60/63/88 59/62/86
f 44/46/87 45/47/89 61/64/90 60/63/88
f 45/47/89 46/48/91 62/65/92 61/64/90
f 46/48/91 47/49/93 63/66/94 62/65/92
f 47/49/93 48/50/95 64/67/96 63/66/94
f 48/50/95 33/51/65 49/68/68 64/67/96
s 4
f 49/52/97 50/53/98 66/70/99 65/69/100
f 50/53/98 51/54/101 67/71/102 66/70/99
f 51/54/101 52/55/103 68/72/104 67/71/102
f 52/55/103 53/56/105 69/73/106 68/72/104
f 53/56/105 54/57/107 70/74/108 69/73/106
f 54/57/107 55/58/109 71/75/110 70/74/108
f 55/58/109 56/59/111 72/76/112 71/75/110
f 56/59/111 57/60/113 73/77/114 72/76/112
f 57/60/113 58/61/115 74/78/116 73/77/114
f 58/61/115 59/62/117 75/79/118 74/78/116
f 59/62/117 60/63/119 76/80/120 75/79/118
f 60/63/119 61/64/121 77/81/122 76/80/120
f 61/64/121 62/65/123 78/82/124 77/81/122
f 62/65/123 63/66/125 79/83/126 78/82/124
f 63/66/125 64/67/127 80/84/128 79/83/126
f 64/67/127 49/68/97 65/85/100 80/84/128
s 5
f 65/69/129 66/70/130 82/87/131 81/86/132
f 66/70/130 67/71/133 83/88/134 82/87/131
f 67/71/133 68/72/135 84/89/136 83/88/134
f 68/72/135 69/73/137 85/90/138 84/89/136
f 69/73/137 70/74/139 86/91/140 85/90/138
f 70/74/139 71/75/141 87/92/142 86/91/140
f 71/75/141 72/76/143 88/93/144 87/92/142
f 72/76/143 73/77/145 89/94/146 88/93/144
f 73/77/145 74/78/147 90/95/148 89/94/146
f 74/78/147 75/79/149 91/96/150 90/95/148
f 75/79/149 76/80/151 92/97/152 91/96/150
f 76/80/151 77/81/153 93/98/154 92/97/152
f 77/81/153 78/82/155 94/99/156 93/98/154
f 78/82/155 79/83/157 95/100/158 94/99/156
f 79/83/157 80/84/159 96/101/160 95/100/158
f 80/84/159 65/85/129 81/102/132 96/101/160
s 6
f 81/86/161 82/87/162 98/104/163 97/103/164
f 82/87/162 83/88/165 99/105/166 98/104/163
f 83/88/165 84/89/167 100/106/168 99/105/166
f 84/89/167 85/90/169 101/107/170 100/106/168
f 85/90/169 86/91/171 102/108/172 101/107/170
f 86/91/171 87/92/173 103/109/174 102/108/172
f 87/92/173 88/93/175 104/110/176 103/109/174
f 88/93/175 89/94/177 105/111/178 104/110/176
f 89/94/177 90/95/179 106/112/180 105/111/178
f 90/95/179 91/96/181 107/113/182 106/112/180
f 91/96/181 92/97/183 108/114/184 107/113/182
f 92/97/183 93/98/185 109/115/186 108/114/184
f 93/98/185 94/99/187 110/116/188 109/115/186
f 94/99/187 95/100/189 111/117/190 110/116/188
f 95/100/189 96/101/191 112/118/192 111/117/190
f 96/101/191 81/102/161 97/119/164 112/118/192
s 7
f 2/2/193 1/1/194 113/120/195
f 3/3/196 2/2/193 113/121/195
f 4/4/197 3/3/196 113/122/195
f 5/5/198 4/4/197 113/123/195
f 6/6/199 5/5/198 113/124/195
f 7/7/200 6/6/199 113/125/195
f 8/8/201 7/7/200 113/126/195
f 9/9/202 8/8/201 113/127/195
f 10/10/203 9/9/202 113/128/195
f 11/11/204 10/10/203 113/129/195
f 12/12/205 11/11/204 113/130/195
f 13/13/206 12/12/205 113/131/195
f 14/14/207 13/13/206 113/132/195
f 15/15/208 14/14/207 113/133/195
f 16/16/209 15/15/208 113/134/195
f 1/17/194 16/16/209 113/135/195
s 8
f 97/103/210 98/104/211 114/136/212
f 98/104/211 99/105/213 114/137/212
f 99/105/213 100/106/214 114/138/212
f 100/106/214 101/107/215 114/139/212
f 101/107/215 102/108/216 114/140/212
f 102/108/216 103/109/217 114/141/212
f 103/109/217 104/110/218 114/142/212
f 104/110/218 105/111/219 114/143/212
f 105/111/219 106/112/220 114/144/212
f 106/112/220 107/113/221 114/145/212
f 107/113/221 108/114/222 114/146/212
f 108/114/222 109/115/223 114/147/212
f 109/115/223 110/116/224 114/148/212
f 110/116/224 111/117/225 114/149/212
f 111/117/225 112/118/226 114/150/212
f 112/118/226 97/119/210 114/151/212
