# This file uses centimeters as units for non-parametric coordinates.

g default
v 0.212492 0.000000 -0.088017
v 0.162635 0.000000 -0.162634
v 0.088017 0.000000 -0.212492
v 0.000000 0.000000 -0.230000
v -0.088017 0.000000 -0.212492
v -0.162634 0.000000 -0.162635
v -0.212492 0.000000 -0.088017
v -0.230000 0.000000 -0.000000
v -0.212492 0.000000 0.088017
v -0.162635 0.000000 0.162635
v -0.088017 0.000000 0.212492
v -0.000000 0.000000 0.230000
v 0.088017 0.000000 0.212492
v 0.162635 0.000000 0.162635
v 0.212492 0.000000 0.088017
v 0.230000 0.000000 0.000000
v 0.244964 0.084853 -0.101467
v 0.187487 0.084853 -0.187487
v 0.101468 0.084853 -0.244964
v 0.000000 0.084853 -0.265147
v -0.101467 0.084853 -0.244964
v -0.187487 0.084853 -0.187487
v -0.244964 0.084853 -0.101468
v -0.265147 0.084853 -0.000000
v -0.244964 0.084853 0.101467
v -0.187487 0.084853 0.187487
v -0.101467 0.084853 0.244964
v -0.000000 0.084853 0.265147
v 0.101467 0.084853 0.244964
v 0.187487 0.084853 0.187487
v 0.244964 0.084853 0.101467
v 0.265147 0.084853 0.000000
v 0.323358 0.120000 -0.133939
v 0.247487 0.120000 -0.247487
v 0.133939 0.120000 -0.323358
v 0.000000 0.120000 -0.350000
v -0.133939 0.120000 -0.323358
v -0.247487 0.120000 -0.247487
v -0.323358 0.120000 -0.133939
v -0.350000 0.120000 -0.000000
v -0.323358 0.120000 0.133939
v -0.247487 0.120000 0.247487
v -0.133939 0.120000 0.323358
v -0.000000 0.120000 0.350000
v 0.133939 0.120000 0.323358
v 0.247487 0.120000 0.247487
v 0.323358 0.120000 0.133939
v 0.350000 0.120000 0.000000
v 0.401752 0.084853 -0.166411
v 0.307487 0.084853 -0.307487
v 0.166411 0.084853 -0.401751
v 0.000000 0.084853 -0.434853
v -0.166411 0.084853 -0.401752
v -0.307487 0.084853 -0.307487
v -0.401752 0.084853 -0.166411
v -0.434853 0.084853 -0.000000
v -0.401752 0.084853 0.166411
v -0.307487 0.084853 0.307487
v -0.166411 0.084853 0.401752
v -0.000000 0.084853 0.434853
v 0.166411 0.084853 0.401752
v 0.307487 0.084853 0.307487
v 0.401752 0.084853 0.166411
v 0.434853 0.084853 0.000000
v 0.434223 0.000000 -0.179861
v 0.332340 0.000000 -0.332340
v 0.179861 0.000000 -0.434223
v 0.000000 0.000000 -0.470000
v -0.179861 0.000000 -0.434223
v -0.332340 0.000000 -0.332340
v -0.434223 0.000000 -0.179861
v -0.470000 0.000000 -0.000000
v -0.434223 0.000000 0.179861
v -0.332340 0.000000 0.332340
v -0.179861 0.000000 0.434223
v -0.000000 0.000000 0.470000
v 0.179861 0.000000 0.434223
v 0.332340 0.000000 0.332340
v 0.434223 0.000000 0.179861
v 0.470000 0.000000 0.000000
v 0.401752 -0.084853 -0.166411
v 0.307487 -0.084853 -0.307487
v 0.166411 -0.084853 -0.401751
v 0.000000 -0.084853 -0.434853
v -0.166411 -0.084853 -0.401752
v -0.307487 -0.084853 -0.307487
v -0.401752 -0.084853 -0.166411
v -0.434853 -0.084853 -0.000000
v -0.401752 -0.084853 0.166411
v -0.307487 -0.084853 0.307487
v -0.166411 -0.084853 0.401752
v -0.000000 -0.084853 0.434853
v 0.166411 -0.084853 0.401752
v 0.307487 -0.084853 0.307487
v 0.401752 -0.084853 0.166411
v 0.434853 -0.084853 0.000000
v 0.323358 -0.120000 -0.133939
v 0.247487 -0.120000 -0.247487
v 0.133939 -0.120000 -0.323358
v 0.000000 -0.120000 -0.350000
v -0.133939 -0.120000 -0.323358
v -0.247487 -0.120000 -0.247487
v -0.323358 -0.120000 -0.133939
v -0.350000 -0.120000 -0.000000
v -0.323358 -0.120000 0.133939
v -0.247487 -0.120000 0.247487
v -0.133939 -0.120000 0.323358
v -0.000000 -0.120000 0.350000
v 0.133939 -0.120000 0.323358
v 0.247487 -0.120000 0.247487
v 0.323358 -0.120000 0.133939
v 0.350000 -0.120000 0.000000
v 0.244964 -0.084853 -0.101467
v 0.187487 -0.084853 -0.187487
v 0.101468 -0.084853 -0.244964
v 0.000000 -0.084853 -0.265147
v -0.101467 -0.084853 -0.244964
v -0.187487 -0.084853 -0.187487
v -0.244964 -0.084853 -0.101468
v -0.265147 -0.084853 -0.000000
v -0.244964 -0.084853 0.101467
v -0.187487 -0.084853 0.187487
v -0.101467 -0.084853 0.244964
v -0.000000 -0.084853 0.265147
v 0.101467 -0.084853 0.244964
v 0.187487 -0.084853 0.187487
v 0.244964 -0.084853 0.101467
v 0.265147 -0.084853 0.000000
vt 0.000000 1.000000
vt 0.062500 1.000000
vt 0.125000 1.000000
vt 0.187500 1.000000
vt 0.250000 1.000000
vt 0.312500 1.000000
vt 0.375000 1.000000
vt 0.437500 1.000000
vt 0.500000 1.000000
vt 0.562500 1.000000
vt 0.625000 1.000000
vt 0.687500 1.000000
vt 0.750000 1.000000
vt 0.812500 1.000000
vt 0.875000 1.000000
vt 0.937500 1.000000
vt 1.000000 1.000000
vt 0.000000 0.875000
vt 0.062500 0.875000
vt 0.125000 0.875000
vt 0.187500 0.875000
vt 0.250000 0.875000
vt 0.312500 0.875000
vt 0.375000 0.875000
vt 0.437500 0.875000
vt 0.500000 0.875000
vt 0.562500 0.875000
vt 0.625000 0.875000
vt 0.687500 0.875000
vt 0.750000 0.875000
vt 0.812500 0.875000
vt 0.875000 0.875000
vt 0.937500 0.875000
vt 1.000000 0.875000
vt 0.000000 0.750000
vt 0.062500 0.750000
vt 0.125000 0.750000
vt 0.187500 0.750000
vt 0.250000 0.750000
vt 0.312500 0.750000
vt 0.375000 0.750000
vt 0.437500 0.750000
vt 0.500000 0.750000
vt 0.562500 0.750000
vt 0.625000 0.750000
vt 0.687500 0.750000
vt 0.750000 0.750000
vt 0.812500 0.750000
vt 0.875000 0.750000
vt 0.937500 0.750000
vt 1.000000 0.750000
vt 0.000000 0.625000
vt 0.062500 0.625000
vt 0.125000 0.625000
vt 0.187500 0.625000
vt 0.250000 0.625000
vt 0.312500 0.625000
vt 0.375000 0.625000
vt 0.437500 0.625000
vt 0.500000 0.625000
vt 0.562500 0.625000
vt 0.625000 0.625000
vt 0.687500 0.625000
vt 0.750000 0.625000
vt 0.812500 0.625000
vt 0.875000 0.625000
vt 0.937500 0.625000
vt 1.000000 0.625000
vt 0.000000 0.500000
vt 0.062500 0.500000
vt 0.125000 0.500000
vt 0.187500 0.500000
vt 0.250000 0.500000
vt 0.312500 0.500000
vt 0.375000 0.500000
vt 0.437500 0.500000
vt 0.500000 0.500000
vt 0.562500 0.500000
vt 0.625000 0.500000
vt 0.687500 0.500000
vt 0.750000 0.500000
vt 0.812500 0.500000
vt 0.875000 0.500000
vt 0.937500 0.500000
vt 1.000000 0.500000
vt 0.000000 0.375000
vt 0.062500 0.375000
vt 0.125000 0.375000
vt 0.187500 0.375000
vt 0.250000 0.375000
vt 0.312500 0.375000
vt 0.375000 0.375000
vt 0.437500 0.375000
vt 0.500000 0.375000
vt 0.562500 0.375000
vt 0.625000 0.375000
vt 0.687500 0.375000
vt 0.750000 0.375000
vt 0.812500 0.375000
vt 0.875000 0.375000
vt 0.937500 0.375000
vt 1.000000 0.375000
vt 0.000000 0.250000
vt 0.062500 0.250000
vt 0.125000 0.250000
vt 0.187500 0.250000
vt 0.250000 0.250000
vt 0.312500 0.250000
vt 0.375000 0.250000
vt 0.437500 0.250000
vt 0.500000 0.250000
vt 0.562500 0.250000
vt 0.625000 0.250000
vt 0.687500 0.250000
vt 0.750000 0.250000
vt 0.812500 0.250000
vt 0.875000 0.250000
vt 0.937500 0.250000
vt 1.000000 0.250000
vt 0.000000 0.125000
vt 0.062500 0.125000
vt 0.125000 0.125000
vt 0.187500 0.125000
vt 0.250000 0.125000
vt 0.312500 0.125000
vt 0.375000 0.125000
vt 0.437500 0.125000
vt 0.500000 0.125000
vt 0.562500 0.125000
vt 0.625000 0.125000
vt 0.687500 0.125000
vt 0.750000 0.125000
vt 0.812500 0.125000
vt 0.875000 0.125000
vt 0.937500 0.125000
vt 1.000000 0.125000
vt 0.000000 0.000000
vt 0.062500 0.000000
vt 0.125000 0.000000
vt 0.187500 0.000000
vt 0.250000 0.000000
vt 0.312500 0.000000
vt 0.375000 0.000000
vt 0.437500 0.000000
vt 0.500000 0.000000
vt 0.562500 0.000000
vt 0.625000 0.000000
vt 0.687500 0.000000
vt 0.750000 0.000000
vt 0.812500 0.000000
vt 0.875000 0.000000
vt 0.937500 0.000000
vt 1.000000 0.000000
vn -0.653282 0.382683 0.653281
vn -0.853553 0.382683 0.353553
vn -0.853554 0.382684 0.353553
vn -0.653282 0.382683 0.653281
vn -0.353554 0.382683 0.853553
vn -0.353554 0.382683 0.853553
vn -0.000000 0.382683 0.923880
vn -0.000000 0.382683 0.923880
vn 0.353553 0.382684 0.853554
vn 0.353553 0.382683 0.853554
vn 0.653281 0.382683 0.653282
vn 0.653281 0.382684 0.653282
vn 0.853553 0.382684 0.353554
vn 0.853553 0.382684 0.353554
vn 0.923880 0.382684 0.000000
vn 0.923880 0.382684 0.000000
vn 0.853553 0.382684 -0.353553
vn 0.853553 0.382683 -0.353553
vn 0.653282 0.382683 -0.653281
vn 0.653282 0.382683 -0.653281
vn 0.353554 0.382683 -0.853553
vn 0.353554 0.382683 -0.853553
vn 0.000000 0.382684 -0.923879
vn 0.000000 0.382684 -0.923880
vn -0.353553 0.382684 -0.853553
vn -0.353553 0.382684 -0.853553
vn -0.653281 0.382684 -0.653282
vn -0.653281 0.382684 -0.653281
vn -0.853553 0.382684 -0.353553
vn -0.853553 0.382684 -0.353553
vn -0.923879 0.382684 -0.000000
vn -0.923880 0.382684 -0.000000
vn -0.270598 0.923880 0.270598
vn -0.353553 0.923880 0.146447
vn -0.353553 0.923880 0.146447
vn -0.270598 0.923880 0.270598
vn -0.146447 0.923880 0.353553
vn -0.146447 0.923880 0.353553
vn -0.000000 0.923880 0.382683
vn -0.000000 0.923880 0.382683
vn 0.146446 0.923880 0.353553
vn 0.146446 0.923880 0.353553
vn 0.270598 0.923880 0.270598
vn 0.270598 0.923880 0.270598
vn 0.353553 0.923880 0.146447
vn 0.353553 0.923880 0.146447
vn 0.382683 0.923880 0.000000
vn 0.382683 0.923880 0.000000
vn 0.353553 0.923880 -0.146447
vn 0.353553 0.923880 -0.146447
vn 0.270598 0.923879 -0.270598
vn 0.270598 0.923880 -0.270598
vn 0.146447 0.923880 -0.353553
vn 0.146447 0.923880 -0.353553
vn 0.000000 0.923880 -0.382683
vn 0.000000 0.923880 -0.382683
vn -0.146447 0.923880 -0.353553
vn -0.146447 0.923880 -0.353553
vn -0.270598 0.923880 -0.270598
vn -0.270598 0.923880 -0.270598
vn -0.353553 0.923880 -0.146447
vn -0.353553 0.923880 -0.146447
vn -0.382683 0.923880 -0.000000
vn -0.382683 0.923880 -0.000000
vn 0.270598 0.923880 -0.270598
vn 0.353554 0.923880 -0.146447
vn 0.353554 0.923880 -0.146447
vn 0.270598 0.923880 -0.270598
vn 0.146447 0.923880 -0.353554
vn 0.146447 0.923880 -0.353554
vn 0.000000 0.923880 -0.382684
vn 0.000000 0.923880 -0.382684
vn -0.146446 0.923880 -0.353554
vn -0.146446 0.923879 -0.353554
vn -0.270598 0.923880 -0.270598
vn -0.270598 0.923880 -0.270598
vn -0.353553 0.923879 -0.146447
vn -0.353553 0.923879 -0.146447
vn -0.382684 0.923879 -0.000000
vn -0.382684 0.923880 -0.000000
vn -0.353554 0.923879 0.146447
vn -0.353554 0.923880 0.146447
vn -0.270598 0.923880 0.270598
vn -0.270598 0.923880 0.270598
vn -0.146447 0.923880 0.353553
vn -0.146447 0.923880 0.353553
vn -0.000000 0.923880 0.382684
vn -0.000000 0.923880 0.382683
vn 0.146447 0.923880 0.353554
vn 0.146447 0.923880 0.353554
vn 0.270598 0.923880 0.270598
vn 0.270598 0.923880 0.270598
vn 0.353554 0.923879 0.146447
vn 0.353554 0.923879 0.146447
vn 0.382684 0.923879 0.000000
vn 0.382684 0.923880 0.000000
vn 0.653282 0.382684 -0.653281
vn 0.853553 0.382684 -0.353553
vn 0.853553 0.382684 -0.353553
vn 0.653282 0.382684 -0.653281
vn 0.353554 0.382684 -0.853553
vn 0.353554 0.382684 -0.853553
vn 0.000000 0.382684 -0.923880
vn 0.000000 0.382684 -0.923879
vn -0.353553 0.382683 -0.853554
vn -0.353553 0.382683 -0.853554
vn -0.653281 0.382683 -0.653282
vn -0.653281 0.382683 -0.653282
vn -0.853553 0.382683 -0.353554
vn -0.853553 0.382683 -0.353554
vn -0.923880 0.382684 -0.000000
vn -0.923880 0.382683 -0.000000
vn -0.853554 0.382683 0.353553
vn -0.853554 0.382683 0.353553
vn -0.653282 0.382684 0.653281
vn -0.653282 0.382683 0.653281
vn -0.353554 0.382684 0.853553
vn -0.353554 0.382684 0.853553
vn -0.000000 0.382684 0.923880
vn -0.000000 0.382684 0.923880
vn 0.353553 0.382683 0.853554
vn 0.353553 0.382683 0.853553
vn 0.653282 0.382683 0.653282
vn 0.653281 0.382683 0.653282
vn 0.853553 0.382683 0.353553
vn 0.853553 0.382683 0.353554
vn 0.923880 0.382684 0.000000
vn 0.923879 0.382684 0.000000
vn 0.653282 -0.382684 -0.653281
vn 0.853553 -0.382684 -0.353553
vn 0.853553 -0.382684 -0.353553
vn 0.653282 -0.382684 -0.653281
vn 0.353554 -0.382684 -0.853553
vn 0.353554 -0.382684 -0.853553
vn 0.000000 -0.382684 -0.923880
vn 0.000000 -0.382684 -0.923880
vn -0.353553 -0.382683 -0.853554
vn -0.353553 -0.382684 -0.853554
vn -0.653281 -0.382683 -0.653282
vn -0.653281 -0.382683 -0.653282
vn -0.853553 -0.382683 -0.353554
vn -0.853553 -0.382683 -0.353554
vn -0.923880 -0.382683 -0.000000
vn -0.923880 -0.382684 -0.000000
vn -0.853554 -0.382684 0.353553
vn -0.853554 -0.382684 0.353553
vn -0.653282 -0.382684 0.653281
vn -0.653282 -0.382684 0.653281
vn -0.353554 -0.382684 0.853553
vn -0.353554 -0.382684 0.853553
vn -0.000000 -0.382684 0.923880
vn -0.000000 -0.382684 0.923880
vn 0.353553 -0.382683 0.853553
vn 0.353553 -0.382683 0.853554
vn 0.653282 -0.382683 0.653282
vn 0.653281 -0.382683 0.653282
vn 0.853553 -0.382683 0.353554
vn 0.853553 -0.382683 0.353553
vn 0.923879 -0.382684 0.000000
vn 0.923880 -0.382684 0.000000
vn 0.270598 -0.923880 -0.270598
vn 0.353553 -0.923880 -0.146447
vn 0.353553 -0.923880 -0.146447
vn 0.270598 -0.923880 -0.270598
vn 0.146447 -0.923880 -0.353553
vn 0.146447 -0.923880 -0.353553
vn 0.000000 -0.923880 -0.382683
vn 0.000000 -0.923880 -0.382683
vn -0.146446 -0.923880 -0.353554
vn -0.146446 -0.923880 -0.353554
vn -0.270598 -0.923880 -0.270598
vn -0.270598 -0.923880 -0.270598
vn -0.353553 -0.923880 -0.146447
vn -0.353553 -0.923880 -0.146447
vn -0.382684 -0.923880 -0.000000
vn -0.382684 -0.923880 -0.000000
vn -0.353554 -0.923880 0.146447
vn -0.353554 -0.923879 0.146447
vn -0.270598 -0.923880 0.270598
vn -0.270598 -0.923880 0.270598
vn -0.146447 -0.923880 0.353553
vn -0.146447 -0.923880 0.353553
vn -0.000000 -0.923880 0.382683
vn -0.000000 -0.923880 0.382683
vn 0.146447 -0.923880 0.353553
vn 0.146447 -0.923880 0.353553
vn 0.270598 -0.923880 0.270598
vn 0.270598 -0.923880 0.270598
vn 0.353554 -0.923880 0.146447
vn 0.353554 -0.923880 0.146447
vn 0.382684 -0.923880 0.000000
vn 0.382684 -0.923880 0.000000
vn -0.270598 -0.923880 0.270598
vn -0.353554 -0.923880 0.146447
vn -0.353554 -0.923880 0.146447
vn -0.270598 -0.923880 0.270598
vn -0.146447 -0.923880 0.353553
vn -0.146447 -0.923880 0.353553
vn -0.000000 -0.923880 0.382684
vn -0.000000 -0.923880 0.382684
vn 0.146446 -0.923880 0.353554
vn 0.146446 -0.923880 0.353554
vn 0.270598 -0.923880 0.270598
vn 0.270598 -0.923880 0.270598
vn 0.353553 -0.923880 0.146447
vn 0.353553 -0.923880 0.146447
vn 0.382683 -0.923880 0.000000
vn 0.382684 -0.923880 0.000000
vn 0.353554 -0.923880 -0.146447
vn 0.353554 -0.923880 -0.146447
vn 0.270598 -0.923879 -0.270598
vn 0.270598 -0.923880 -0.270598
vn 0.146447 -0.923880 -0.353553
vn 0.146447 -0.923880 -0.353553
vn 0.000000 -0.923880 -0.382683
vn 0.000000 -0.923880 -0.382683
vn -0.146447 -0.923880 -0.353553
vn -0.146447 -0.923880 -0.353553
vn -0.270598 -0.923880 -0.270598
vn -0.270598 -0.923880 -0.270598
vn -0.353553 -0.923880 -0.146447
vn -0.353553 -0.923880 -0.146447
vn -0.382683 -0.923880 -0.000000
vn -0.382683 -0.923880 -0.000000
vn -0.653282 -0.382684 0.653281
vn -0.853553 -0.382684 0.353553
vn -0.853553 -0.382684 0.353553
vn -0.653282 -0.382684 0.653281
vn -0.353554 -0.382684 0.853553
vn -0.353554 -0.382684 0.853553
vn -0.000001 -0.382684 0.923879
vn -0.000001 -0.382684 0.923879
vn 0.353553 -0.382684 0.853553
vn 0.353553 -0.382684 0.853553
vn 0.653281 -0.382684 0.653282
vn 0.653281 -0.382684 0.653282
vn 0.853553 -0.382684 0.353554
vn 0.853553 -0.382684 0.353554
vn 0.923879 -0.382684 0.000000
vn 0.923879 -0.382684 0.000000
vn 0.853553 -0.382684 -0.353553
vn 0.853553 -0.382684 -0.353553
vn 0.653282 -0.382684 -0.653281
vn 0.653282 -0.382684 -0.653281
vn 0.353553 -0.382684 -0.853553
vn 0.353554 -0.382684 -0.853553
vn 0.000000 -0.382684 -0.923879
vn 0.000000 -0.382684 -0.923879
vn -0.353553 -0.382684 -0.853553
vn -0.353553 -0.382684 -0.853553
vn -0.653281 -0.382684 -0.653281
vn -0.653281 -0.382684 -0.653281
vn -0.853553 -0.382684 -0.353553
vn -0.853553 -0.382684 -0.353553
vn -0.923879 -0.382684 -0.000000
vn -0.923879 -0.382684 -0.000000
s 1
g maya_torus
f 2/2/1 1/1/2 17/18/3 18/19/4
f 3/3/5 2/2/1 18/19/4 19/20/6
f 4/4/7 3/3/5 19/20/6 20/21/8
f 5/5/9 4/4/7 20/21/8 21/22/10
f 6/6/11 5/5/9 21/22/10 22/23/12
f 7/7/13 6/6/11 22/23/12 23/24/14
f 8/8/15 7/7/13 23/24/14 24/25/16
f 9/9/17 8/8/15 24/25/16 25/26/18
f 10/10/19 9/9/17 25/26/18 26/27/20
f 11/11/21 10/10/19 26/27/20 27/28/22
f 12/12/23 11/11/21 27/28/22 28/29/24
f 13/13/25 12/12/23 28/29/24 29/30/26
f 14/14/27 13/13/25 29/30/26 30/31/28
f 15/15/29 14/14/27 30/31/28 31/32/30
f 16/16/31 15/15/29 31/32/30 32/33/32
f 1/17/2 16/16/31 32/33/32 17/34/3
s 2
f 18/19/33 17/18/34 33/35/35 34/36/36
f 19/20/37 18/19/33 34/36/36 35/37/38
f 20/21/39 19/20/37 35/37/38 36/38/40
f 21/22/41 20/21/39 36/38/40 37/39/42
f 22/23/43 21/22/41 37/39/42 38/40/44
f 23/24/45 22/23/43 38/40/44 39/41/46
f 24/25/47 23/24/45 39/41/46 40/42/48
f 25/26/49 24/25/47 40/42/48 41/43/50
f 26/27/51 25/26/49 41/43/50 42/44/52
f 27/28/53 26/27/51 42/44/52 43/45/54
f 28/29/55 27/28/53 43/45/54 44/46/56
f 29/30/57 28/29/55 44/46/56 45/47/58
f 30/31/59 29/30/57 45/47/58 46/48/60
f 31/32/61 30/31/59 46/48/60 47/49/62
f 32/33/63 31/32/61 47/49/62 48/50/64
f 17/34/34 32/33/63 48/50/64 33/51/35
s 3
f 34/36/65 33/35/66 49/52/67 50/53/68
f 35/37/69 34/36/65 50/53/68 51/54/70
f 36/38/71 35/37/69 51/54/70 52/55/72
f 37/39/73 36/38/71 52/55/72 53/56/74
f 38/40/75 37/39/73 53/56/74 54/57/76
f 39/41/77 38/40/75 54/57/76 55/58/78
f 40/42/79 39/41/77 55/58/78 56/59/80
f 41/43/81 40/42/79 56/59/80 57/60/82
f 42/44/83 41/43/81 57/60/82 58/61/84
f 43/45/85 42/44/83 58/61/84 59/62/86
f 44/46/87 43/45/85 59/62/86 60/63/88
f 45/47/89 44/46/87 60/63/88 61/64/90
f 46/48/91 45/47/89 61/64/90 62/65/92
f 47/49/93 46/48/91 62/65/92 63/66/94
f 48/50/95 47/49/93 63/66/94 64/67/96
f 33/51/66 48/50/95 64/67/96 49/68/67
s 4
f 50/53/97 49/52/98 65/69/99 66/70/100
f 51/54/101 50/53/97 66/70/100 67/71/102
f 52/55/103 51/54/101 67/71/102 68/72/104
f 53/56/105 52/55/103 68/72/104 69/73/106
f 54/57/107 53/56/105 69/73/106 70/74/108
f 55/58/109 54/57/107 70/74/108 71/75/110
f 56/59/111 55/58/109 71/75/110 72/76/112
f 57/60/113 56/59/111 72/76/112 73/77/114
f 58/61/115 57/60/113 73/77/114 74/78/116
f 59/62/117 58/61/115 74/78/116 75/79/118
f 60/63/119 59/62/117 75/79/118 76/80/120
f 61/64/121 60/63/119 76/80/120 77/81/122
f 62/65/123 61/64/121 77/81/122 78/82/124
f 63/66/125 62/65/123 78/82/124 79/83/126
f 64/67/127 63/66/125 79/83/126 80/84/128
f 49/68/98 64/67/127 80/84/128 65/85/99
s 5
f 66/70/129 65/69/130 81/86/131 82/87/132
f 67/71/133 66/70/129 82/87/132 83/88/134
f 68/72/135 67/71/133 83/88/134 84/89/136
f 69/73/137 68/72/135 84/89/136 85/90/138
f 70/74/139 69/73/137 85/90/138 86/91/140
f 71/75/141 70/74/139 86/91/140 87/92/142
f 72/76/143 71/75/141 87/92/142 88/93/144
f 73/77/145 72/76/143 88/93/144 89/94/146
f 74/78/147 73/77/145 89/94/146 90/95/148
f 75/79/149 74/78/147 90/95/148 91/96/150
f 76/80/151 75/79/149 91/96/150 92/97/152
f 77/81/153 76/80/151 92/97/152 93/98/154
f 78/82/155 77/81/153 93/98/154 94/99/156
f 79/83/157 78/82/155 94/99/156 95/100/158
f 80/84/159 79/83/157 95/100/158 96/101/160
f 65/85/130 80/84/159 96/101/160 81/102/131
s 6
f 82/87/161 81/86/162 97/103/163 98/104/164
f 83/88/165 82/87/161 98/104/164 99/105/166
f 84/89/167 83/88/165 99/105/166 100/106/168
f 85/90/169 84/89/167 100/106/168 101/107/170
f 86/91/171 85/90/169 101/107/170 102/108/172
f 87/92/173 86/91/171 102/108/172 103/109/174
f 88/93/175 87/92/173 103/109/174 104/110/176
f 89/94/177 88/93/175 104/110/176 105/111/178
f 90/95/179 89/94/177 105/111/178 106/112/180
f 91/96/181 90/95/179 106/112/180 107/113/182
f 92/97/183 91/96/181 107/113/182 108/114/184
f 93/98/185 92/97/183 108/114/184 109/115/186
f 94/99/187 93/98/185 109/115/186 110/116/188
f 95/100/189 94/99/187 110/116/188 111/117/190
f 96/101/191 95/100/189 111/117/190 112/118/192
f 81/102/162 96/101/191 112/118/192 97/119/163
s 7
f 98/104/193 97/103/194 113/120/195 114/121/196
f 99/105/197 98/104/193 114/121/196 115/122/198
f 100/106/199 99/105/197 115/122/198 116/123/200
f 101/107/201 100/106/199 116/123/200 117/124/202
f 102/108/203 101/107/201 117/124/202 118/125/204
f 103/109/205 102/108/203 118/125/204 119/126/206
f 104/110/207 103/109/205 119/126/206 120/127/208
f 105/111/209 104/110/207 120/127/208 121/128/210
f 106/112/211 105/111/209 121/128/210 122/129/212
f 107/113/213 106/112/211 122/129/212 123/130/214
f 108/114/215 107/113/213 123/130/214 124/131/216
f 109/115/217 108/114/215 124/131/216 125/132/218
f 110/116/219 109/115/217 125/132/218 126/133/220
f 111/117/221 110/116/219 126/133/220 127/134/222
f 112/118/223 111/117/221 127/134/222 128/135/224
f 97/119/194 112/118/223 128/135/224 113/136/195
s 8
f 114/121/225 113/120/226 1/137/227 2/138/228
f 115/122/229 114/121/225 2/138/228 3/139/230
f 116/123/231 115/122/229 3/139/230 4/140/232
f 117/124/233 116/123/231 4/140/232 5/141/234
f 118/125/235 117/124/233 5/141/234 6/142/236
f 119/126/237 118/125/235 6/142/236 7/143/238
f 120/127/239 119/126/237 7/143/238 8/144/240
f 121/128/241 120/127/239 8/144/240 9/145/242
f 122/129/243 121/128/241 9/145/242 10/146/244
f 123/130/245 122/129/243 10/146/244 11/147/246
f 124/131/247 123/130/245 11/147/246 12/148/248
f 125/132/249 124/131/247 12/148/248 13/149/250
f 126/133/251 125/132/249 13/149/250 14/150/252
f 127/134/253 126/133/251 14/150/252 15/151/254
f 128/135/255 127/134/253 15/151/254 16/152/256
f 113/136/226 128/135/255 16/152/256 1/153/227
